<?xml version="1.0" standalone="no"?>
<!DOCTYPE svg PUBLIC "-//W3C//DTD SVG 1.1//EN" "http://www.w3.org/Graphics/SVG/1.1/DTD/svg11.dtd" >
<svg>
<metadata>
Created by FontForge 20110222 at Tue Jan 21 23:45:39 2014
 By Orthosie Webhosting
Copyright (c) 2012 by Dhanbisishthabongs Kliauklom. All rights reserved.
</metadata>
<defs>
<font id="ThaiSansNeueLight" horiz-adv-x="0" >
  <font-face 
    font-family="ThaiSansNeueLight"
    font-weight="300"
    font-stretch="normal"
    units-per-em="1000"
    panose-1="0 0 0 0 0 0 0 0 0 0"
    ascent="749"
    descent="-251"
    x-height="352"
    cap-height="483"
    bbox="-345 -339 1007 900"
    underline-thickness="50"
    underline-position="-49"
    unicode-range="U+0020-2122"
  />
<missing-glyph horiz-adv-x="335" 
d="M37 0v350h270v-350h-270z" />
    <glyph glyph-name="arm" unicode="&#x3b;&#x3b;arm&#x3b;&#x3b;" horiz-adv-x="1035" 
d="M953 312l-13 -22h20zM941 351l-37 -61h20l24 41zM730 850h-36l13 -39zM875 290h13l47 79l-7 24l-56 -93zM877 553l-57 -94l6 -16l56 91zM859 340l7 -23l56 94l-7 22zM834 683l-55 -93l6 -20l56 92zM889 513l-56 -93l6 -16l56 92zM806 773l-56 -93l6 -20l56 93zM774 850
h-25l-35 -57l8 -28zM863 597l-57 -93l7 -20l55 93zM764 636l6 -20l56 93l-6 20zM117 0q0 -11 7.5 -20t22.5 -9q30 0 30 29q0 30 -30 30q-15 0 -22.5 -9t-7.5 -21zM686 120h30l-30 -100h-20zM716 20l20 100h30l-30 -100h-20zM848 643l-56 -93l7 -24l56 93zM903 473l-57 -93
l6 -19l57 91zM729 746l11 -36l56 94l-11 34zM177 820q0 -15 8.5 -27.5t31.5 -12.5t31.5 12.5t8.5 27.5q0 23 -12.5 31.5t-27.5 8.5t-27.5 -8.5t-12.5 -31.5zM957 -19q-2 19 -8 34q-6 13 -17.5 24t-34.5 11q-26 0 -42 -20.5t-24 -44.5q-10 -28 -14 -64zM817 -129
q0 -11 3.5 -23.5t11 -23t19 -17t26.5 -6.5q30 0 46 20t24 45q9 28 10 65zM660 840l-123 -340h232zM777 -99q0 37 9 71.5t25 60.5t38 42t48 16q53 0 81.5 -36.5t28.5 -103.5q0 -98 -35 -144t-95 -46q-19 0 -37 8t-32 24.5t-22.5 43t-8.5 64.5zM37 620v40h160v80
q-11 0 -22 6.5t-19.5 17.5t-13.5 25.5t-5 30.5q0 18 7 32.5t18 25t25.5 16.5t29.5 6q38 0 59 -21t21 -59q0 -13 -4 -27t-11.5 -25.5t-18.5 -19t-26 -8.5v-80h160v-40h-160v-120l107 -240h-40l-87 200l-87 -200h-40l107 240v120h-160zM181 -239l-32 160l18 12q-2 -1 -6 -1
q-4 -1 -14 -1q-9 0 -21.5 3.5t-23 11.5t-18 21t-7.5 33q0 11 4 23.5t12.5 23t21.5 17t32 6.5q30 0 50 -20t20 -50q0 -7 -3.5 -25t-23.5 -32l22 -102l55 110h20l55 -110l35 209h50l-16 -84l11 20l65 15q0 52 6 88.5t18 58.5t31 32t45 10q30 0 45 -20t15 -50h-20
q0 15 -7.5 27.5t-22.5 12.5q-38 0 -54 -37t-16 -112l73 18l9 -37l-82 -21v-40q0 -60 -3 -109.5t-14.5 -85.5t-33.5 -55.5t-59 -19.5q-30 0 -50 15t-20 45h20q0 -15 12.5 -22.5t27.5 -7.5q30 0 46 18t23.5 49.5t9 75.5t1.5 97v30l-80 -20l-34 -180h-26l-70 150l-70 -150h-26z
M447 260h-40l228 620h172l200 -620h-160l-61 190h-269z" />
    <glyph glyph-name=".notdef" horiz-adv-x="335" 
d="M37 0v350h270v-350h-270z" />
    <glyph glyph-name=".null" 
 />
    <glyph glyph-name="nonmarkingreturn" horiz-adv-x="322" 
 />
    <glyph glyph-name="space" unicode=" " horiz-adv-x="322" 
 />
    <glyph glyph-name="space" unicode="&#xa0;" horiz-adv-x="322" 
 />
    <glyph glyph-name="exclam" unicode="!" horiz-adv-x="125" 
d="M37 0v51h51v-51h-51zM37 114v398h51v-398h-51z" />
    <glyph glyph-name="quotedbl" unicode="&#x22;" horiz-adv-x="235" 
d="M139 513h52v-153h-52v153zM37 513h52v-153h-52v153z" />
    <glyph glyph-name="numbersign" unicode="#" horiz-adv-x="537" 
d="M202 302l-30 -114h149l31 114h-150zM78 302l10 40h76l38 141h49l-38 -141h149l38 141h49l-38 -141h86l-11 -40h-86l-30 -114h86l-12 -41h-85l-39 -147h-48l39 147h-150l-39 -147h-48l39 147h-76l10 41h76l31 114h-76z" />
    <glyph glyph-name="dollar" unicode="$" horiz-adv-x="385" 
d="M328 422q-15 8 -34 14q-17 5 -42 10t-60 5q-18 0 -36.5 -5.5t-33.5 -15t-24.5 -23.5t-9.5 -31q0 -30 19.5 -46.5t48 -28.5t62.5 -22.5t62.5 -27.5t48 -44t19.5 -71q0 -26 -5.5 -50t-20 -43t-39 -32.5t-62.5 -17.5v-76h-48v74q-35 1 -60.5 7t-42.5 13q-19 8 -33 17v42
q19 -11 42 -20q20 -8 45.5 -13.5t54.5 -5.5q55 0 86.5 27t31.5 78q0 36 -19.5 56t-48 33t-62.5 22.5t-62.5 24.5t-48 38.5t-19.5 65.5q0 26 11.5 46.5t30.5 35t43.5 23t50.5 10.5v76h48v-76q27 -2 47 -6t34 -9q16 -5 26 -12v-42z" />
    <glyph glyph-name="percent" unicode="%" horiz-adv-x="564" 
d="M433 -13q-37 0 -62.5 32t-25.5 98q0 71 27 106t66 35q38 0 63.5 -33t25.5 -102t-28 -102.5t-66 -33.5zM480 120q0 31 -3.5 50.5t-9.5 30t-14 14t-17 3.5q-8 0 -15.5 -4t-13.5 -14.5t-9.5 -30t-3.5 -50.5t3.5 -49.5t9.5 -28t13.5 -12.5t15.5 -3q9 0 17 3.5t14 13.5
t9.5 28.5t3.5 48.5zM125 283q-37 0 -62.5 32t-25.5 98q0 71 26.5 106t66.5 35q38 0 63.5 -33t25.5 -102q0 -34 -7.5 -59.5t-20.5 -42.5t-30 -25.5t-36 -8.5zM172 416q0 30 -4 49.5t-10 30t-14 14.5t-16 4t-15.5 -4t-13.5 -15t-9.5 -30t-3.5 -50q0 -29 3.5 -47t9 -28
t13 -13.5t16.5 -3.5t17 3.5t14 14t9.5 28.5t3.5 47zM161 0h-53l331 594h53z" />
    <glyph glyph-name="ampersand" unicode="&#x26;" horiz-adv-x="545" 
d="M287 396q0 14 -7.5 24t-18 16.5t-22.5 9.5t-21 3q-39 0 -59.5 -19t-20.5 -46q0 -26 14 -50t44 -41q48 17 69.5 42.5t21.5 60.5zM196 31q44 0 84 16t67 47q-15 21 -30 43.5t-33.5 43.5t-42 39t-54.5 29q-26 -11 -44.5 -21.5t-30.5 -24.5t-18 -33t-6 -47q0 -50 28.5 -71
t79.5 -21zM508 0q-51 0 -80.5 18t-52.5 44q-69 -71 -178 -71q-78 0 -119 31.5t-41 100.5q0 55 27 93t85 64q-22 14 -42 40t-20 64q0 54 38 81.5t93 27.5q22 0 44 -7t38.5 -19.5t27 -31t10.5 -41.5q0 -46 -26.5 -73t-77.5 -46q55 -28 88.5 -67.5t56.5 -74.5q16 23 29 49.5
t21.5 52.5t13 50.5t4.5 43.5v13h51q-3 -59 -28 -124t-65 -121q20 -25 42.5 -40.5t60.5 -15.5v-41z" />
    <glyph glyph-name="quotesingle" unicode="'" horiz-adv-x="125" 
d="M37 513h51v-153h-51v153z" />
    <glyph glyph-name="parenleft" unicode="(" horiz-adv-x="195" 
d="M139 -140q-57 63 -87 145t-30 178q0 193 118 334h43q-59 -72 -86.5 -155t-27.5 -179q0 -93 27.5 -173t86.5 -150h-44z" />
    <glyph glyph-name="parenright" unicode=")" horiz-adv-x="195" 
d="M7 -140q59 70 86.5 149.5t27.5 173.5t-27.5 178t-86.5 156h43q118 -141 118 -334q0 -190 -118 -323h-43z" />
    <glyph glyph-name="asterisk" unicode="*" horiz-adv-x="280" 
d="M37 381l81 42l-81 42l33 45l57 -54l-11 79h56l-12 -80l59 55l33 -45l-82 -42l82 -42l-33 -45l-59 55l12 -80h-56l11 79l-57 -54z" />
    <glyph glyph-name="plus" unicode="+" horiz-adv-x="365" 
d="M162 354h41v-132h125v-41h-125v-121h-41v121h-125v41h125v132z" />
    <glyph glyph-name="comma" unicode="," horiz-adv-x="125" 
d="M37 53h51v-56q0 -20 -10.5 -39t-23.5 -34q-15 -18 -33 -33h-37q15 19 26 37q10 16 18.5 34.5t8.5 34.5v56z" />
    <glyph glyph-name="hyphen" unicode="-" horiz-adv-x="260" 
d="M37 190v43h186v-43h-186z" />
    <glyph glyph-name="period" unicode="." horiz-adv-x="125" 
d="M37 0v53h51v-53h-51z" />
    <glyph glyph-name="slash" unicode="/" horiz-adv-x="222" 
d="M54 0h-47l159 595h46z" />
    <glyph glyph-name="zero" unicode="0" horiz-adv-x="405" 
d="M383 242q0 -63 -16 -110t-42 -78.5t-60.5 -47t-71.5 -15.5t-68 14.5t-54 44.5t-36 75t-13 106q0 65 13.5 114t37.5 81.5t57 49t72 16.5q37 0 70 -15t58 -45.5t39 -78t14 -111.5zM332 237q0 106 -38.5 160t-95.5 54q-54 0 -89.5 -54t-35.5 -163q0 -103 35.5 -153t89.5 -50
q57 0 95.5 51.5t38.5 154.5z" />
    <glyph glyph-name="one" unicode="1" horiz-adv-x="220" 
d="M183 483v-483h-51v415q-17 -11 -47.5 -28.5t-62.5 -24.5v42q22 9 41.5 22t34.5 26q18 15 32 31h53z" />
    <glyph glyph-name="two" unicode="2" horiz-adv-x="330" 
d="M252 360q0 49 -24.5 70t-64.5 21q-32 0 -66 -9t-55 -32v42q21 22 52 31t69 9q60 0 100 -31.5t40 -94.5q0 -36 -17 -67t-42 -59t-54.5 -53.5t-55.5 -50t-43.5 -48t-18.5 -47.5h251v-41h-301v41q0 29 17 55.5t42.5 52t55.5 50.5t55.5 51t42.5 53t17 57z" />
    <glyph glyph-name="three" unicode="3" horiz-adv-x="340" 
d="M318 130q0 -34 -13 -60t-36 -43.5t-54 -26.5t-67 -9q-35 0 -62.5 7.5t-48.5 19.5v45q24 -20 51 -26t60 -6q52 0 85.5 24t33.5 70q0 51 -40 77.5t-140 26.5v37q45 2 80 13q30 9 55 29t25 55q0 48 -22.5 68t-59.5 20q-24 0 -54.5 -6t-53.5 -23v42q23 15 48 21.5t60 6.5
q28 0 52.5 -9t42.5 -24.5t28 -36t10 -43.5q0 -96 -94 -128q23 -4 44 -14.5t36.5 -26t24.5 -36t9 -44.5z" />
    <glyph glyph-name="four" unicode="4" horiz-adv-x="351" 
d="M230 483h53v-322h61v-42h-61v-119h-51v119h-225v46zM59 161h173v251z" />
    <glyph glyph-name="five" unicode="5" horiz-adv-x="320" 
d="M298 142q0 -75 -46.5 -113t-121.5 -38q-35 0 -56 5t-37 12v42q11 -6 25 -10q12 -4 29 -6.5t39 -2.5q59 0 88 28.5t29 78.5q0 54 -33.5 83.5t-85.5 29.5q-23 0 -40.5 -1.5t-28.5 -3.5q-13 -2 -22 -4v241h227v-42h-176v-154h38q43 0 75.5 -11t54 -30.5t32 -46t10.5 -57.5z
" />
    <glyph glyph-name="six" unicode="6" horiz-adv-x="354" 
d="M22 213q0 137 52.5 208t146.5 71h43.5t38.5 -8v-41q-10 2 -22 4q-11 2 -25.5 3t-34.5 1q-70 1 -110.5 -53.5t-38.5 -153.5q8 17 22 28t29.5 17t31 8.5t27.5 2.5q31 0 58.5 -11t47.5 -31t32 -48t12 -62t-11.5 -62.5t-31.5 -49.5t-49 -33t-63 -12q-72 0 -113.5 59
t-41.5 163zM77 160q0 -57 24.5 -93t75.5 -36q22 0 41 9.5t33 25.5t22.5 37.5t8.5 44.5q0 53 -27 82.5t-78 29.5q-26 0 -45 -11t-31 -26.5t-18 -32.5t-6 -30z" />
    <glyph glyph-name="seven" unicode="7" horiz-adv-x="325" 
d="M318 483v-30l-174 -453h-50l165 441h-252v42h311z" />
    <glyph glyph-name="eight" unicode="8" horiz-adv-x="345" 
d="M42 370q0 27 9.5 49t27 38.5t41 25.5t52.5 9q27 0 51 -9.5t42 -26t28 -39t10 -47.5q0 -35 -18 -64.5t-51 -44.5q45 -20 67 -57t22 -78q0 -34 -11.5 -59t-32 -42t-48 -25.5t-59.5 -8.5q-69 0 -109.5 33.5t-40.5 101.5q0 43 22.5 79t66.5 56q-31 15 -50 44.5t-19 64.5z
M172 239q-45 0 -72 -29t-27 -74t24 -75t75 -30q49 0 74.5 30t25.5 75q0 19 -6.5 37.5t-19 33t-31 23.5t-43.5 9zM93 364q0 -32 19.5 -57t59.5 -25q35 0 58 25t23 57q0 41 -24.5 64t-56.5 23q-38 0 -58.5 -23t-20.5 -64z" />
    <glyph glyph-name="nine" unicode="9" horiz-adv-x="354" 
d="M332 270q0 -139 -50.5 -209t-145.5 -70h-45t-40 8v41q10 -3 23 -5q11 -2 26.5 -3t35.5 -1q37 0 65 15t47 42.5t27.5 66t6.5 84.5q-9 -18 -22.5 -29t-29 -17t-31 -8t-27.5 -2q-31 0 -58 10.5t-47.5 30.5t-32.5 47.5t-12 62.5q0 34 11 63t31 50t48.5 33t63.5 12
q70 0 113 -58t43 -164zM277 324q0 63 -27.5 95t-73.5 32q-20 0 -38.5 -8.5t-33 -24.5t-23.5 -37.5t-9 -46.5q0 -57 28.5 -84t75.5 -27q25 0 44 10.5t32 26t19 33t6 31.5z" />
    <glyph glyph-name="colon" unicode=":" horiz-adv-x="125" 
d="M37 291v51h51v-51h-51zM37 0v51h51v-51h-51z" />
    <glyph glyph-name="semicolon" unicode=";" horiz-adv-x="125" 
d="M37 291v52h51v-52h-51zM37 52h51v-55q0 -22 -10.5 -41t-23.5 -33q-15 -17 -33 -32h-37q15 18 26 36q10 16 18.5 34.5t8.5 35.5v55z" />
    <glyph glyph-name="less" unicode="&#x3c;" horiz-adv-x="352" 
d="M345 35v-45l-323 161v21l323 181v-46l-257 -146z" />
    <glyph glyph-name="equal" unicode="=" horiz-adv-x="365" 
d="M37 123v42h291v-42h-291zM37 228v41h291v-41h-291z" />
    <glyph glyph-name="greater" unicode="&#x3e;" horiz-adv-x="352" 
d="M7 -10v45l257 126l-257 146v46l323 -181v-21z" />
    <glyph glyph-name="question" unicode="?" horiz-adv-x="305" 
d="M97 0v51h51v-51h-51zM148 114h-51v98q0 19 9 33.5t22 26.5t29 23t29 23t22 27t9 35q0 38 -21.5 55t-49.5 17q-27 0 -47 -6t-34 -14q-16 -9 -28 -19v43q9 10 24 18q13 7 33 12.5t49 5.5q23 0 45.5 -6.5t40 -19.5t28.5 -33t11 -47q0 -39 -19 -63t-41.5 -41t-41 -31.5
t-18.5 -36.5v-100z" />
    <glyph glyph-name="at" unicode="@" horiz-adv-x="645" 
d="M394 129q-24 -46 -47 -62.5t-59 -16.5q-20 0 -40.5 7.5t-36.5 23.5t-26 40.5t-10 58.5q0 31 13 59t34 49t48.5 33t56.5 12q35 0 54 -13.5t26 -26.5l8 39h46l-28 -155q-2 -24 2 -42q3 -16 10 -29t24 -13q22 0 38.5 13t27.5 32.5t16.5 42.5t5.5 43q0 31 -14 66t-41.5 64
t-68.5 47.5t-95 17.5q-56 -1 -100.5 -23t-76 -56t-48.5 -75.5t-17 -81.5t15 -79.5t44 -71t72 -51t100 -19.5q38 0 74.5 8t66.5 20v-40q-29 -10 -64 -18t-75 -8q-60 0 -111 19.5t-88.5 54t-58.5 82t-21 103.5q0 57 22.5 106.5t62 87t92 60t112.5 23.5q54 1 102.5 -16.5
t85 -49t58 -75t21.5 -94.5q0 -36 -11 -67.5t-29.5 -55t-43 -37.5t-52.5 -14q-36 -1 -55 17.5t-21 60.5zM327 292q-18 0 -36.5 -7.5t-33.5 -21.5t-24.5 -34.5t-9.5 -47.5q0 -47 21.5 -68.5t45.5 -21.5q39 0 65.5 33t34.5 118q-1 18 -16 34t-47 16z" />
    <glyph glyph-name="A" unicode="A" horiz-adv-x="425" 
d="M117 172h185l-91 260zM237 483l177 -483h-50l-48 130h-213l-49 -130h-47l177 483h53z" />
    <glyph glyph-name="B" unicode="B" horiz-adv-x="375" 
d="M37 0v483h136q64 0 99.5 -31.5t35.5 -80.5q0 -18 -5 -35.5t-15.5 -33.5t-25.5 -28t-35 -19q49 -8 80 -40.5t31 -78.5q0 -29 -12 -54t-33.5 -43t-51.5 -28.5t-66 -10.5h-138zM88 441v-164h64q48 0 76.5 21t28.5 63q0 35 -22.5 57.5t-77.5 22.5h-69zM88 236v-195h81
q52 0 85 27t33 68q0 48 -35 74t-95 26h-69z" />
    <glyph glyph-name="C" unicode="C" horiz-adv-x="400" 
d="M392 17q-29 -17 -62.5 -21.5t-71.5 -4.5q-53 0 -96.5 17t-74.5 48.5t-48 77t-17 102.5q0 60 17.5 107.5t49.5 80.5t76.5 50.5t99.5 17.5q32 0 67 -3t59 -14l-16 -42q-29 14 -53.5 16t-56.5 2q-41 0 -76 -14t-61 -41t-40.5 -67t-14.5 -93q0 -97 52 -151t140 -54
q19 0 33 1.5t26.5 5t24.5 8.5t26 13z" />
    <glyph glyph-name="D" unicode="D" horiz-adv-x="450" 
d="M37 0v483h133q129 0 193.5 -59.5t64.5 -177.5q0 -55 -18.5 -100t-53 -77.5t-83.5 -50.5t-109 -18h-127zM88 441v-400h76q48 0 87 13.5t67 40t43.5 64.5t15.5 87q0 100 -55.5 147.5t-155.5 47.5h-78z" />
    <glyph glyph-name="E" unicode="E" horiz-adv-x="325" 
d="M288 41v-41h-251v483h251v-42h-200v-179h180v-41h-180v-180h200z" />
    <glyph glyph-name="F" unicode="F" horiz-adv-x="295" 
d="M88 221v-221h-51v483h251v-42h-200v-179h180v-41h-180z" />
    <glyph glyph-name="G" unicode="G" horiz-adv-x="460" 
d="M423 242v-218q-38 -21 -76 -27t-86 -6q-53 0 -97 16.5t-75.5 47.5t-49 75.5t-17.5 100.5q0 58 19.5 106.5t54 82.5t81.5 53t102 19q36 0 61 -4.5t42 -9.5q18 -6 31 -13v-39q2 -2 -4 1.5t-22.5 9t-44 10t-67.5 4.5q-43 0 -80 -15.5t-64 -44t-42.5 -69t-15.5 -91.5
t14.5 -88.5t40.5 -62.5t62 -37t79 -12q32 0 56.5 5.5t46.5 18.5v146h-110v41h161z" />
    <glyph glyph-name="H" unicode="H" horiz-adv-x="435" 
d="M398 483v-483h-51v231h-259v-231h-51v483h51v-211h259v211h51z" />
    <glyph glyph-name="I" unicode="I" horiz-adv-x="125" 
d="M37 0v483h51v-483h-51z" />
    <glyph glyph-name="J" unicode="J" horiz-adv-x="245" 
d="M207 483v-315q0 -83 -35 -130t-99 -47q-19 0 -31.5 1t-20.5 3q-9 2 -14 5l17 38q6 -2 13 -4q12 -3 34 -3q85 0 85 137v315h51z" />
    <glyph glyph-name="K" unicode="K" horiz-adv-x="380" 
d="M370 0h-52l-129 279l-101 -129v-150h-51v483h51v-258l206 258h58l-130 -162z" />
    <glyph glyph-name="L" unicode="L" horiz-adv-x="295" 
d="M288 41v-41h-251v483h51v-442h200z" />
    <glyph glyph-name="M" unicode="M" horiz-adv-x="575" 
d="M538 483v-483h-51v419l-193 -419h-24l-182 418v-418h-51v483h72l173 -405l183 405h73z" />
    <glyph glyph-name="N" unicode="N" horiz-adv-x="465" 
d="M428 483v-483h-68l-272 416v-416h-51v483h68l272 -421v421h51z" />
    <glyph glyph-name="O" unicode="O" horiz-adv-x="505" 
d="M247 31q88 0 136.5 57t48.5 157q0 45 -12.5 83t-35 65.5t-55 42.5t-72.5 15q-44 0 -78.5 -15.5t-58 -44t-35.5 -68.5t-12 -89q0 -45 11.5 -82.5t34 -64.5t55 -41.5t73.5 -14.5zM247 -9q-51 0 -92.5 16.5t-71 48t-45.5 76.5t-16 102q0 122 62 190t173 68q50 0 91.5 -17.5
t71.5 -49.5t46.5 -77.5t16.5 -102.5q0 -61 -16.5 -108.5t-47.5 -79.5t-74.5 -49t-97.5 -17z" />
    <glyph glyph-name="P" unicode="P" horiz-adv-x="350" 
d="M88 181v-181h-51v483h132q78 0 118.5 -38.5t40.5 -108.5q0 -33 -11.5 -61.5t-33.5 -49.5t-54 -32.5t-74 -11.5h-67zM88 441v-219h67q59 0 90.5 31t31.5 82q0 53 -24 79.5t-84 26.5h-81z" />
    <glyph glyph-name="Q" unicode="Q" horiz-adv-x="505" 
d="M246 31q88 0 137 57t49 157q0 45 -12.5 83t-35 65.5t-54.5 42.5t-71 15q-45 0 -80 -15.5t-58.5 -44t-35.5 -68.5t-12 -89q0 -45 12 -82.5t34 -64.5t54 -41.5t73 -14.5zM249 -9q-105 0 -166 64t-61 179q0 122 62 190t175 68q49 0 90.5 -17.5t71 -49.5t46 -77.5
t16.5 -102.5q0 -82 -29.5 -139t-83.5 -87q25 -10 47.5 -30t22.5 -58h-47q0 14 -8.5 25t-21 19.5t-26 14.5t-22.5 9q-16 -4 -32 -6t-34 -2z" />
    <glyph glyph-name="R" unicode="R" horiz-adv-x="390" 
d="M379 0h-57l-88 139l-19 28.5t-19.5 23t-24 15t-31.5 5.5h-52v-211h-51v483h146q30 0 56.5 -8.5t46 -25t31 -41t11.5 -56.5q0 -53 -33 -82t-82 -40q23 -8 39 -31.5t31 -47.5zM88 441v-189h80q45 0 77 25t32 75q0 41 -29 66t-77 24z" />
    <glyph glyph-name="S" unicode="S" horiz-adv-x="385" 
d="M328 423q-15 8 -34 14q-17 5 -42 9.5t-60 4.5q-17 0 -35.5 -5.5t-33.5 -15t-25 -23.5t-10 -31q0 -30 19.5 -46.5t48 -28.5t62.5 -22.5t62.5 -27.5t48 -44t19.5 -71q0 -28 -7 -54t-25.5 -46.5t-52 -32.5t-85.5 -12q-35 0 -61 5.5t-44 12.5q-21 8 -36 19v42q20 -11 44 -20
q20 -8 46.5 -13.5t55.5 -5.5q57 0 85.5 29t28.5 76q0 35 -19.5 55.5t-48 33.5t-62.5 22.5t-62.5 24.5t-48 39t-19.5 65q0 29 14 51t36 36.5t50 22t55 7.5q34 0 59.5 -5t42.5 -10q20 -6 34 -14v-41z" />
    <glyph glyph-name="T" unicode="T" horiz-adv-x="340" 
d="M333 483v-42h-135v-441h-51v441h-140v42h326z" />
    <glyph glyph-name="U" unicode="U" horiz-adv-x="435" 
d="M398 483v-294q0 -101 -45.5 -149.5t-139.5 -48.5q-90 0 -133 46.5t-43 144.5v301h51v-297q0 -75 27.5 -115t96.5 -40t102 37.5t33 111.5v303h51z" />
    <glyph glyph-name="V" unicode="V" horiz-adv-x="425" 
d="M211 56l153 427h50l-177 -483h-53l-177 483h50z" />
    <glyph glyph-name="W" unicode="W" horiz-adv-x="635" 
d="M574 483h51l-147 -483h-63l-94 398l-114 -398h-63l-137 483h50l119 -430l128 430h33l109 -431z" />
    <glyph glyph-name="X" unicode="X" horiz-adv-x="395" 
d="M223 241l157 -241h-59l-127 199l-128 -199h-59l157 241l-147 242h59l117 -200l128 200h59z" />
    <glyph glyph-name="Y" unicode="Y" horiz-adv-x="375" 
d="M313 483h49l-157 -307v-176h-51v172l-147 311h50l123 -258z" />
    <glyph glyph-name="Z" unicode="Z" horiz-adv-x="375" 
d="M368 483v-10l-284 -432h273q0 -11 0.5 -20.5t0.5 -20.5h-351v9l284 432h-264v42h341z" />
    <glyph glyph-name="bracketleft" unicode="[" horiz-adv-x="187" 
d="M37 -140v657h143v-40h-98v-577h98v-40h-143z" />
    <glyph glyph-name="backslash" unicode="\" horiz-adv-x="222" 
d="M212 0h-46l-159 595h47z" />
    <glyph glyph-name="bracketright" unicode="]" horiz-adv-x="187" 
d="M150 517v-657h-143v40h98v577h-98v40h143z" />
    <glyph glyph-name="asciicircum" unicode="^" horiz-adv-x="443" 
d="M83 193h-46l161 325h21l181 -325h-46l-146 258z" />
    <glyph glyph-name="underscore" unicode="_" horiz-adv-x="365" 
d="M37 -49v43h291v-43h-291z" />
    <glyph glyph-name="grave" unicode="`" horiz-adv-x="203" 
d="M85 543l71 -103h-38l-81 103h48z" />
    <glyph glyph-name="a" unicode="a" horiz-adv-x="345" 
d="M162 26q16 0 31.5 5t28.5 13t23 17.5t16 17.5v93l-28 -8q-13 -3 -28 -5.5t-30 -2.5q-17 0 -33.5 -4t-30 -12t-21.5 -20t-8 -29q0 -37 24 -51t56 -14zM307 0h-46v40q-14 -16 -40.5 -33t-64.5 -17q-53 0 -87.5 24.5t-32.5 76.5q1 33 15 53t33.5 31.5t41.5 15.5t41 4
q26 0 44.5 2.5t29.5 5.5q13 4 21 8q0 57 -26 83t-72 26q-31 0 -52 -10t-34 -21q-15 -14 -24 -31l-17 39q10 17 27 30q14 11 38 20.5t61 9.5q25 0 50.5 -6.5t46.5 -21.5t34 -40.5t13 -62.5v-226z" />
    <glyph glyph-name="b" unicode="b" horiz-adv-x="395" 
d="M83 0h-46v512h46v-206q13 14 31 25q16 10 39 18t53 8q26 0 55.5 -10.5t54 -32t41 -54.5t16.5 -78q0 -50 -14.5 -85t-38.5 -57.5t-53.5 -33t-59.5 -10.5t-53 7.5t-39 17.5q-18 11 -32 25v-46zM83 84q16 -16 35 -27q17 -10 40 -18t51 -8q18 0 39 8t38.5 26t29 47t11.5 70
q0 33 -11.5 59t-29 43.5t-38 27t-39.5 9.5q-29 0 -51.5 -8.5t-39.5 -18.5q-19 -11 -35 -26v-184z" />
    <glyph glyph-name="c" unicode="c" horiz-adv-x="295" 
d="M287 17q-11 -7 -25 -11q-12 -4 -29 -7t-38 -3q-78 0 -125.5 44.5t-47.5 125.5q0 43 13 78.5t36.5 60.5t56.5 38.5t73 13.5q18 0 34 -3.5t27 -7.5q13 -5 25 -11l-16 -36q-8 6 -19 11q-9 4 -22 7.5t-29 3.5q-26 0 -49.5 -10t-42.5 -29.5t-30 -48.5t-11 -67q0 -36 11 -61.5
t30 -42t42.5 -24t49.5 -7.5q16 0 29 3t22 8q11 5 19 12z" />
    <glyph glyph-name="d" unicode="d" horiz-adv-x="395" 
d="M312 0v46q-13 -14 -31 -25q-16 -10 -38.5 -17.5t-52.5 -7.5t-60 10t-54 32t-39 57.5t-15 86.5q0 46 16.5 79.5t41.5 54.5t55 31t56 10q30 0 52.5 -8t37.5 -18q18 -11 31 -25v206h46v-512h-46zM312 268q-17 15 -36 26q-17 10 -39.5 18.5t-48.5 8.5q-19 0 -40 -9t-39 -26.5
t-29.5 -43.5t-11.5 -60q0 -43 11.5 -72t29.5 -46.5t39 -25t40 -7.5q26 0 48.5 8t39.5 18q19 11 36 27v184z" />
    <glyph glyph-name="e" unicode="e" horiz-adv-x="344" 
d="M322 166h-255q0 -36 9.5 -61.5t26 -42t38.5 -24t46 -7.5q27 0 44.5 5t28.5 12q12 8 20 18l17 -39q-13 -9 -29 -16q-14 -6 -33.5 -10.5t-45.5 -4.5q-37 0 -67.5 9.5t-52.5 30.5t-34.5 54t-12.5 80q0 41 12 75.5t32.5 59t49 38.5t61.5 14q66 0 105.5 -43t39.5 -127v-21z
M275 202q-2 57 -28 88t-70 31q-42 0 -72.5 -32.5t-38.5 -86.5h209z" />
    <glyph glyph-name="f" unicode="f" horiz-adv-x="225" 
d="M7 306v36h65v58q0 59 22.5 90.5t69.5 31.5q17 0 28 -0.5t17 -1.5q7 -1 9 -1v-35q-3 0 -7 1q-4 0 -10.5 0.5t-17.5 0.5q-37 0 -51 -21.5t-14 -64.5v-58h100v-36h-100v-306h-46v306h-65z" />
    <glyph glyph-name="g" unicode="g" horiz-adv-x="395" 
d="M312 269q-16 15 -35 26q-17 10 -39.5 18.5t-48.5 8.5q-19 0 -40 -7.5t-39 -25.5t-30 -47t-12 -72q0 -34 12 -60t30 -43.5t39 -26.5t40 -9q26 0 48.5 8t39.5 18q19 11 35 27v185zM312 352h46v-345q0 -96 -44 -138.5t-140 -42.5q-30 0 -52 5t-36 11q-17 7 -28 16l17 37
q10 -10 24 -17q12 -6 30.5 -11t44.5 -5q72 0 105 33t33 103v48q-14 -14 -32 -25q-16 -10 -39 -17.5t-53 -7.5q-25 0 -54 9.5t-54 30.5t-41.5 54t-16.5 80q0 51 15 86.5t38.5 58t53.5 32.5t60 10t52.5 -8t38.5 -18q18 -11 32 -25v46z" />
    <glyph glyph-name="h" unicode="h" horiz-adv-x="365" 
d="M328 0h-46v232q0 39 -27.5 61.5t-65.5 22.5q-28 0 -48 -9.5t-33 -20.5q-15 -13 -25 -30v-256h-46v512h46v-216q9 17 25 30q14 11 35 21t52 10q36 0 61.5 -9.5t41.5 -27t23 -41t7 -50.5v-229z" />
    <glyph glyph-name="i" unicode="i" horiz-adv-x="120" 
d="M37 409v45h46v-45h-46zM37 0v352h46v-352h-46z" />
    <glyph glyph-name="j" unicode="j" horiz-adv-x="120" 
d="M37 409v45h46v-45h-46zM-84 -125q5 -4 11 -7q5 -2 11.5 -4t13.5 -2q42 0 63.5 33.5t21.5 95.5v361h46v-350q0 -86 -35 -131t-95 -45q-29 0 -42 5q-8 3 -12 6z" />
    <glyph glyph-name="k" unicode="k" horiz-adv-x="320" 
d="M240 341h51l-88 -110l107 -231h-43l-91 197l-93 -118v-79h-46v512h46v-368z" />
    <glyph glyph-name="l" unicode="l" horiz-adv-x="120" 
d="M37 0v512h46v-512h-46z" />
    <glyph glyph-name="m" unicode="m" horiz-adv-x="610" 
d="M573 0h-46v232q0 41 -28.5 62.5t-66.5 21.5q-28 0 -47 -9.5t-32 -20.5q-15 -13 -25 -30v-256h-46v232q0 39 -27.5 61.5t-65.5 22.5q-29 0 -48.5 -9.5t-32.5 -20.5q-15 -13 -25 -30v-256h-46v352h46v-56q0 1 6.5 10.5t20 21t34 20.5t49.5 9q51 0 80 -17t43 -48
q4 6 14 16.5t26 21.5t37 19t47 8q36 0 61.5 -9.5t41.5 -26.5t23 -40.5t7 -51.5v-229z" />
    <glyph glyph-name="n" unicode="n" horiz-adv-x="365" 
d="M328 0h-46v232q0 41 -28 62.5t-67 21.5q-28 0 -47 -9.5t-32 -20.5q-15 -13 -25 -30v-256h-46v352h46v-56q9 17 25 30q14 11 34.5 21t50.5 10q37 0 63 -9.5t42 -26.5t23 -40.5t7 -51.5v-229z" />
    <glyph glyph-name="o" unicode="o" horiz-adv-x="384" 
d="M189 31q57 0 92 37t35 111q0 68 -33.5 105t-86.5 37q-57 0 -92.5 -37.5t-35.5 -112.5q0 -69 34 -104.5t87 -35.5zM189 -4q-75 0 -121 45t-46 130q0 91 46.5 138.5t127.5 47.5q75 0 120.5 -46.5t45.5 -131.5q0 -91 -46 -137t-127 -46z" />
    <glyph glyph-name="p" unicode="p" horiz-adv-x="395" 
d="M83 352v-46q13 14 31 25q16 10 39 18t55 8q28 0 57.5 -10t53.5 -32.5t39 -58t15 -86.5q0 -47 -16.5 -80t-41.5 -54t-54.5 -30.5t-55.5 -9.5q-30 0 -53 7.5t-38 17.5q-18 11 -31 25v-205h-46v511h46zM83 84q16 -15 35 -26q17 -10 39.5 -18t49.5 -8q21 0 42 9.5t38.5 27.5
t28.5 43.5t11 57.5q0 40 -11 68.5t-28 47t-38 27t-41 8.5q-29 0 -51.5 -8t-39.5 -18q-19 -11 -35 -26v-185z" />
    <glyph glyph-name="q" unicode="q" horiz-adv-x="395" 
d="M312 352h46v-511h-46v205q-14 -14 -32 -25q-16 -10 -38.5 -17.5t-52.5 -7.5q-26 0 -55 9.5t-54 30.5t-41.5 54t-16.5 80q0 51 15.5 86.5t39.5 58t54.5 32.5t60.5 10t52.5 -8t37.5 -18q18 -11 30 -25v46zM312 269q-16 15 -35 26q-17 10 -39.5 18t-50.5 8q-21 0 -42 -8.5
t-38.5 -27t-28 -47t-10.5 -68.5q0 -32 11 -57.5t28.5 -43.5t38.5 -27.5t42 -9.5q27 0 49.5 8t39.5 18q19 11 35 26v185z" />
    <glyph glyph-name="r" unicode="r" horiz-adv-x="217" 
d="M210 311q-4 1 -9 2t-10.5 1.5t-11.5 0.5q-18 0 -35 -16t-31 -35q-16 -23 -30 -51v-213h-46v352h46v-92q9 27 23 48q12 18 30 33.5t43 15.5q6 0 11 -0.5t10 -1.5t10 -1v-43z" />
    <glyph glyph-name="s" unicode="s" horiz-adv-x="305" 
d="M248 303q-9 6 -23 11q-12 5 -30 8.5t-43 3.5q-26 0 -47.5 -17t-21.5 -43q0 -22 13.5 -33.5t34.5 -18t44.5 -12.5t44.5 -17.5t34.5 -32t13.5 -56.5q0 -19 -7 -38t-23 -34t-42 -24t-64 -9q-23 0 -40.5 3t-29.5 8q-14 4 -25 11v36q11 -7 26 -12q13 -5 30.5 -8t40.5 -3
q41 0 64.5 17t23.5 53q0 27 -13.5 41.5t-34.5 23.5t-44.5 15t-44.5 16t-34.5 26.5t-13.5 47.5q0 19 10 37t26.5 31t37 21t41.5 8q25 0 43 -3.5t30 -8.5q14 -5 23 -11v-37z" />
    <glyph glyph-name="t" unicode="t" horiz-adv-x="225" 
d="M7 306v36h65v170h46v-170h100v-36h-100v-189q0 -43 14.5 -64.5t51.5 -21.5q22 0 27 1q4 0 7 1v-34q-3 -1 -10 -2q-6 -1 -17 -1h-28q-48 0 -69.5 31.5t-21.5 90.5v188h-65z" />
    <glyph glyph-name="u" unicode="u" horiz-adv-x="365" 
d="M37 352h46v-234q0 -36 26.5 -59.5t68.5 -23.5q29 0 48 9.5t32 20.5q14 13 24 30v257h46v-352h-46v56q-11 -18 -27 -31q-14 -11 -35.5 -20.5t-50.5 -9.5q-36 0 -61.5 9.5t-41 26.5t-22.5 40.5t-7 51.5v229z" />
    <glyph glyph-name="v" unicode="v" horiz-adv-x="335" 
d="M275 352h47l-122 -352h-60l-131 352h53l108 -301z" />
    <glyph glyph-name="w" unicode="w" horiz-adv-x="510" 
d="M450 352h50l-107 -352h-53l-84 287l-93 -287h-58l-98 352h54l78 -301l100 301h34l90 -301z" />
    <glyph glyph-name="x" unicode="x" horiz-adv-x="305" 
d="M241 352h49l-117 -181l117 -171h-49l-93 134l-92 -134h-49l117 176l-117 176h49l92 -139z" />
    <glyph glyph-name="y" unicode="y" horiz-adv-x="359" 
d="M23 -124q5 -4 11 -7q12 -7 27 -7q22 0 38 8.5t28 36.5l38 90l-153 355h50l128 -293l108 293h50l-166 -425q-11 -27 -21 -46.5t-23.5 -31.5t-32 -17.5t-46.5 -5.5q-14 0 -23.5 2t-16.5 4q-8 3 -13 6z" />
    <glyph glyph-name="z" unicode="z" horiz-adv-x="323" 
d="M316 352v-13l-207 -303h204v-36h-276v10l209 306h-190v36h260z" />
    <glyph glyph-name="braceleft" unicode="{" horiz-adv-x="200" 
d="M193 -174q-54 0 -81.5 28t-27.5 90v119q0 83 -62 91v35q62 6 62 88v117q0 64 28.5 92.5t80.5 30.5v-40q-32 -2 -47 -24.5t-15 -60.5v-120q0 -40 -13 -66.5t-48 -36.5q33 -8 47 -34.5t14 -68.5v-115q0 -43 11 -64t51 -21v-40z" />
    <glyph glyph-name="bar" unicode="|" horiz-adv-x="121" 
d="M37 -125v692h47v-692h-47z" />
    <glyph glyph-name="braceright" unicode="}" horiz-adv-x="200" 
d="M7 -134q40 0 51 21t11 64v115q0 42 14 68.5t47 34.5q-35 10 -48 36.5t-13 66.5v120q0 38 -15 60.5t-47 24.5v40q52 -2 80.5 -30.5t28.5 -92.5v-117q0 -82 62 -88v-35q-62 -8 -62 -91v-119q0 -62 -27.5 -90t-81.5 -28v40z" />
    <glyph glyph-name="asciitilde" unicode="~" horiz-adv-x="364" 
d="M327 252q-2 -48 -24.5 -67.5t-57.5 -19.5q-18 0 -34 8.5t-32 18t-31.5 18t-31.5 8.5q-47 0 -47 -53h-32q0 41 22 64t58 23q18 0 33.5 -8.5t31.5 -18.5t33 -18.5t37 -8.5q16 0 28 14t14 40h33z" />
    <glyph glyph-name="copyright" unicode="&#xa9;" horiz-adv-x="648" 
d="M63 242q0 -55 21 -103t57 -83.5t84.5 -56t103.5 -20.5t103 20.5t84 56t56.5 83.5t20.5 103t-20.5 103.5t-56.5 84.5t-84 56.5t-103 20.5t-103.5 -20.5t-84.5 -56.5t-57 -84.5t-21 -103.5zM37 242q0 61 23 114t62.5 92.5t92.5 62t114 22.5t114 -22.5t92.5 -62t62 -92.5
t22.5 -114t-22.5 -114t-62 -92t-92.5 -61.5t-114 -22.5t-114 22.5t-92.5 61.5t-62.5 92t-23 114zM439 74q-20 -11 -43.5 -14.5t-50.5 -3.5q-79 0 -126.5 48t-47.5 133q0 86 49 135t130 49q23 0 47 -3t42 -10l-11 -24q-18 8 -38 10.5t-40 2.5q-66 0 -106 -43.5t-40 -116.5
q0 -75 40 -115.5t106 -40.5q26 0 42 4.5t36 15.5z" />
    <glyph glyph-name="registered" unicode="&#xae;" horiz-adv-x="657" 
d="M63 242q0 -55 21 -103t57 -83.5t84.5 -56t103.5 -20.5t103 20.5t84 56t56.5 83.5t20.5 103t-20.5 103.5t-56.5 84.5t-84 56.5t-103 20.5t-103.5 -20.5t-84.5 -56.5t-57 -84.5t-21 -103.5zM37 242q0 61 23 114t62.5 92.5t92.5 62t114 22.5t114 -22.5t92.5 -62t62 -92.5
t22.5 -114t-22.5 -114t-62 -92t-92.5 -61.5t-114 -22.5t-114 22.5t-92.5 61.5t-62.5 92t-23 114zM478 71h-39l-59 98q-17 27 -39.5 43t-36.5 16h-43v-157h-32v355h107q44 0 74 -24t30 -70q0 -24 -7 -41t-19 -28.5t-28 -18t-33 -9.5q18 -10 32.5 -26.5t22.5 -29.5zM261 400
v-147h55q18 0 34.5 5t29 15t20.5 24.5t8 34.5q0 30 -21.5 49t-59.5 19h-66z" />
    <glyph glyph-name="onequarter" unicode="&#xbc;" horiz-adv-x="682" 
d="M600 286h29v-177h34v-23h-34v-66h-28v66h-123v25zM506 109h95v138zM132 586v-266h-28v229q-9 -6 -26 -16t-34 -14v24q12 5 22.5 12t18.5 14q10 8 18 17h29zM204 0h-46l358 595h47z" />
    <glyph glyph-name="onehalf" unicode="&#xbd;" horiz-adv-x="695" 
d="M629 222q0 27 -13.5 39t-36.5 12q-17 0 -36.5 -5t-31.5 -18v23q12 12 29.5 17.5t38.5 5.5q34 0 56 -18t22 -53q0 -30 -19.5 -54.5t-43.5 -46t-44.5 -41.5t-21.5 -40h140v-23h-168v23q0 24 20 45.5t44.5 42.5t44.5 43t20 48zM132 586v-266h-28v229q-9 -6 -26 -16t-34 -14
v24q12 5 22.5 12t18.5 14q10 8 18 17h29zM204 0h-46l358 595h47z" />
    <glyph glyph-name="threequarters" unicode="&#xbe;" horiz-adv-x="681" 
d="M599 286h29v-177h34v-23h-34v-66h-28v66h-123v25zM505 109h95v138zM191 396q0 -38 -27 -57t-66 -19q-20 0 -34.5 4t-26.5 11v25q14 -11 28.5 -14.5t32.5 -3.5q29 0 47 13t18 39q0 28 -21.5 42.5t-76.5 14.5v20q24 1 43 7q17 5 30.5 15.5t13.5 30.5q0 26 -12.5 37.5
t-32.5 11.5q-13 0 -29.5 -3.5t-29.5 -12.5v23q13 8 26.5 11.5t32.5 3.5q32 0 52.5 -18t20.5 -44q0 -53 -51 -70q26 -5 44 -23t18 -44zM204 0h-46l358 595h47z" />
    <glyph glyph-name="uni0E01" unicode="&#xe01;" horiz-adv-x="420" 
d="M331 0v276q0 36 -13 58t-33.5 35t-45.5 17.5t-48 4.5q-29 0 -52 -10.5t-38 -22.5q-18 -14 -31 -32l60 -50q-5 -6 -9 -17q-3 -9 -5.5 -23.5t-2.5 -37.5v-198h-52v196q0 19 3 33.5t7 25.5q4 12 11 21q-17 14 -30 25q-11 9 -20.5 16.5t-9.5 8.5q15 29 39 53q20 20 52 36.5
t79 16.5q32 0 65.5 -7t61.5 -23.5t45.5 -42.5t17.5 -63v-240q0 -14 -5.5 -23.5t-12.5 -17.5q-8 -9 -18 -15h-15z" />
    <glyph glyph-name="uni0E02" unicode="&#xe02;" horiz-adv-x="350" 
d="M103 136q0 -19 3 -37.5t11.5 -33.5t24 -24.5t41.5 -9.5q24 0 39.5 10t24.5 26t12 34t3 35v286h51v-286q0 -30 -6 -56.5t-21 -46t-39.5 -31t-60.5 -11.5q-39 0 -65 11.5t-41.5 31t-22 46t-6.5 56.5v40q0 28 5 47t13 32t17 22.5t17 18.5q6 8 12.5 20t6.5 20q0 17 -8.5 31
t-32.5 14h-59v41h59q39 0 65.5 -20.5t26.5 -65.5q0 -25 -13 -44.5t-28 -34.5q-8 -8 -18.5 -27.5t-10.5 -53.5v-40z" />
    <glyph glyph-name="uni0E03" unicode="&#xe03;" horiz-adv-x="350" 
d="M103 136q0 -19 3 -37.5t11 -33.5t23.5 -24.5t41.5 -9.5q24 0 39.5 10.5t24.5 27t12.5 35t3.5 35.5v283h51v-279q0 -33 -6 -60.5t-21 -48t-40.5 -32t-63.5 -11.5t-63 11.5t-40 31t-21 46t-6 56.5v50q0 30 14 59t37 51q4 4 9 7.5t9.5 9t7.5 13.5t3 21q0 16 -10 24t-21 10
q-6 1 -13 -4l-14 -10q-8 -7 -15 -15q-7 8 -13 15q-5 5 -12 10t-12 5v40q7 0 14 -4t14 -9q7 -6 15 -13q7 7 15 13q7 5 16 9t20 4q32 0 49.5 -20.5t17.5 -55.5q0 -30 -13.5 -47.5t-28.5 -32.5q-4 -4 -10.5 -11t-12.5 -17.5t-10.5 -23.5t-4.5 -28v-50z" />
    <glyph glyph-name="uni0E04" unicode="&#xe04;" horiz-adv-x="425" 
d="M88 170q13 17 31 31q14 11 34.5 21t44.5 10v-51q-23 0 -43 -8.5t-35 -18.5q-18 -11 -32 -26v-128h-51v296q0 34 15 59.5t40 42.5t56.5 25.5t63.5 8.5q33 0 64.5 -8.5t56.5 -26t40 -43t15 -58.5v-296h-51v296q0 25 -11 43t-29 29.5t-40.5 17t-44.5 5.5q-23 0 -45 -5.5
t-39.5 -17.5t-28.5 -30t-11 -42v-126z" />
    <glyph glyph-name="uni0E05" unicode="&#xe05;" horiz-adv-x="425" 
d="M37 0v296q0 26 8.5 51t24 44t37.5 30.5t49 11.5q11 0 21 -7.5t18 -16.5q9 -11 17 -23q8 12 18 23q8 9 17.5 16.5t20.5 7.5q27 0 49 -11.5t37.5 -30.5t24.5 -44t9 -51v-296h-51v296q0 15 -4 31.5t-12 31t-20.5 23.5t-28.5 9q-8 0 -18.5 -9t-19.5 -20q-11 -13 -22 -29
q-11 16 -22 29q-9 11 -19 20t-18 9q-17 0 -29 -9t-20 -23.5t-12 -31t-4 -31.5v-126q13 17 31 31q15 11 35 21t44 10v-51q-23 0 -43 -8.5t-35 -18.5q-18 -11 -32 -26v-128h-51z" />
    <glyph glyph-name="uni0E06" unicode="&#xe06;" horiz-adv-x="430" 
d="M103 97q16 -16 35 -28q17 -11 39 -19.5t49 -8.5q66 0 91 32.5t25 92.5v256h51v-288q0 -24 -9 -49t-26.5 -46t-43 -34.5t-59.5 -13.5q-38 0 -66.5 10t-47.5 22q-23 14 -38 33v-56h-51v192q0 36 12.5 54t27.5 31t27.5 27.5t12.5 42.5q0 17 -11 25t-22 8q-6 0 -13 -4.5
t-13 -9.5q-7 -6 -14 -14q-5 8 -11 15q-5 5 -11.5 10t-14.5 5v40q6 0 13.5 -4t14.5 -9q8 -6 15 -13q7 7 15 13q7 5 16 9t20 4q29 1 48 -18.5t19 -57.5q0 -34 -12.5 -53t-27.5 -34t-27.5 -30.5t-12.5 -41.5v-90z" />
    <glyph glyph-name="uni0E07" unicode="&#xe07;" horiz-adv-x="355" 
d="M22 282h51l60 -241q30 0 57 12.5t47 35t32 53.5t12 69q0 37 -12 68.5t-33 54t-48 35t-57 12.5v42q45 0 82 -16t63 -44t40.5 -67t14.5 -85q0 -49 -17 -88t-45 -66.5t-63.5 -42t-72.5 -14.5h-43z" />
    <glyph glyph-name="uni0E08" unicode="&#xe08;" horiz-adv-x="405" 
d="M151 0l-40 160q-3 8 -7.5 9.5t-12.5 1.5h-20v41h40q12 0 18.5 -2t10.5 -5t6 -6.5t4 -6.5l43 -151q37 0 63.5 16t43 42t24 58t7.5 64q0 43 -13.5 75t-35 53t-49.5 31.5t-58 10.5q-36 0 -62 -13t-43 -29q-19 -18 -32 -42l-15 40q10 24 30 42q17 16 46.5 29.5t76.5 13.5
q49 0 87 -17t64.5 -45.5t40.5 -67t14 -81.5q0 -47 -12.5 -87.5t-36 -70t-57 -46.5t-75.5 -17h-50z" />
    <glyph glyph-name="uni0E09" unicode="&#xe09;" horiz-adv-x="420" 
d="M61 158q0 8 -1 20.5t-10 12.5h-28v41h34q29 0 42.5 -19.5t13.5 -48.5v-28q0 -23 2.5 -41t11 -30.5t26 -19.5t47.5 -7q26 0 50 9.5t43 20.5q21 13 40 31v157q0 66 -32 100.5t-93 34.5q-30 0 -55.5 -8.5t-43.5 -19.5q-22 -12 -39 -28l-16 41q17 16 41 28q20 11 48.5 19.5
t64.5 8.5q92 0 134 -46.5t42 -119.5v-266h-51v56q-18 -19 -42 -33q-20 -12 -48 -22t-62 -10q-60 0 -89.5 40.5t-29.5 109.5v17z" />
    <glyph glyph-name="uni0E0A" unicode="&#xe0a;" horiz-adv-x="375" 
d="M101 125q0 -17 3 -33.5t12.5 -30t28.5 -22t51 -8.5q25 0 44 12.5t31 31t18 39t6 36.5q0 26 -6 50.5t-19 43.5t-32 30.5t-45 11.5v41q25 0 45.5 15t35 40.5t22.5 59t8 71.5h51q0 -64 -15 -104t-34 -62.5t-36 -31t-20 -9.5q2 -1 17 -8t32 -24.5t31 -47.5t14 -76
q0 -27 -7 -55t-24.5 -51.5t-45.5 -38t-70 -14.5q-45 0 -73 10.5t-44.5 29.5t-22.5 44t-6 54v47q0 28 5.5 47t13 32t16.5 22.5t17 18.5q6 8 12.5 20t6.5 20q0 17 -7.5 31t-30.5 14h-62v41h62q36 0 62.5 -20.5t26.5 -65.5q0 -25 -13.5 -45t-28.5 -35q-8 -8 -19 -28t-11 -52
v-51z" />
    <glyph glyph-name="uni0E0B" unicode="&#xe0b;" horiz-adv-x="375" 
d="M195 -9q-44 0 -71.5 10.5t-44 29.5t-22.5 44t-6 54v61q0 29 14.5 57t37.5 50q8 8 18.5 18t10.5 32q0 17 -10 24t-22 9q-6 0 -13 -4.5t-13 -9.5q-7 -6 -14 -15q-6 8 -12 15q-5 6 -12 11t-14 5v40q7 0 14 -4t14 -9q7 -6 15 -13q7 7 15 13q7 5 16 9t20 4q29 0 48 -19t19 -57
q0 -29 -13 -46t-27 -32q-4 -4 -11 -11.5t-14 -18t-12 -24t-5 -28.5v-61q0 -17 3 -33.5t13 -30t28.5 -22t50.5 -8.5q24 0 42.5 12.5t31 31t19 39t6.5 36.5q0 26 -6 50.5t-19 43.5t-32 30.5t-45 11.5v41q25 0 45.5 15t35 40.5t22.5 59t8 71.5h51q0 -64 -15 -104t-34 -62.5
t-36 -31t-20 -9.5q2 -1 17 -8t32 -24.5t31 -47.5t14 -76q0 -28 -7.5 -56t-24.5 -51t-46 -37.5t-71 -14.5z" />
    <glyph glyph-name="uni0E0C" unicode="&#xe0c;" horiz-adv-x="680" 
d="M382 0h-51v276q0 36 -13.5 58.5t-34.5 35t-46 17t-47 4.5q-29 0 -50.5 -10.5t-36.5 -22.5q-18 -14 -31 -32l60 -50q-6 -6 -10 -17q-4 -9 -6.5 -24.5t-2.5 -38.5v-135q0 -8 0.5 -13.5t8.5 -6.5h30v-41h-39q-30 0 -40.5 17t-10.5 49v130q0 19 3 33.5t7 25.5q4 12 10 21
q-17 14 -30 25q-11 9 -20.5 16.5t-9.5 8.5q15 29 39 53q20 20 52 36.5t77 16.5q33 0 67 -7t61.5 -23.5t45.5 -42.5t18 -63v-198q13 -17 31 -29q15 -11 36 -19.5t47 -8.5q33 0 52 8.5t28.5 24t12 39t2.5 53.5v256h51v-286q0 -26 -5.5 -52t-19 -46.5t-36 -33.5t-56.5 -13
q-38 0 -65 10t-44 22q-20 14 -34 33v-56z" />
    <glyph glyph-name="uni0E0D" unicode="&#xe0d;" horiz-adv-x="680" 
d="M382 139q0 -45 19 -71.5t71 -26.5q29 0 51.5 9t37.5 20q18 13 31 30v322h50v-376q0 -34 -13 -65.5t-36 -56t-54 -39t-66 -14.5q-28 0 -49.5 7t-37.5 16q-18 11 -33 24l16 40q11 -13 27 -23q14 -9 33.5 -16t45.5 -7q53 0 85 38.5t32 101.5v4q-15 -19 -35 -33
q-17 -12 -41.5 -22t-56.5 -10q-38 0 -62.5 11t-38.5 31t-20 48t-6 62v133q0 35 -13 57.5t-33.5 35t-45.5 17.5t-49 5q-29 0 -51 -10.5t-37 -22.5q-18 -14 -31 -32l60 -50q-6 -6 -10 -17q-4 -9 -6.5 -24.5t-2.5 -38.5v-135q0 -8 1 -13.5t9 -6.5h29v-41h-36q-26 0 -40 14
t-14 52v130q0 19 3 33.5t7 25.5q4 12 10 21q-17 14 -30 25q-11 9 -20.5 16.5t-9.5 8.5q15 29 39 53q20 20 52 36.5t78 16.5q33 0 66.5 -7t61.5 -23.5t45.5 -42.5t17.5 -63v-157z" />
    <glyph glyph-name="uni0E0E" unicode="&#xe0e;" horiz-adv-x="420" 
d="M275 -122q32 0 44 14.5t12 45.5v338q0 36 -13.5 58.5t-34 35t-45.5 17t-47 4.5q-29 0 -51 -10.5t-37 -22.5q-18 -14 -31 -32l60 -50q-6 -7 -10 -18q-4 -10 -7 -24.5t-3 -37.5v-130q0 -35 -13 -50.5t-40 -15.5h-38v41h30q8 1 9.5 6.5t1.5 13.5v135q0 19 3 33.5t7 25.5
q4 12 10 21q-17 14 -30 25q-11 9 -20.5 16.5t-9.5 8.5q15 29 39 53q20 20 52 36.5t78 16.5q34 0 68 -7t61.5 -23.5t44.5 -42.5t17 -63v-363q0 -12 -2.5 -28t-12.5 -30.5t-30.5 -25t-56.5 -10.5q-23 0 -43 7.5t-35 16.5q-18 11 -32 25q-15 -14 -35 -25q-17 -9 -43.5 -16.5
t-60.5 -7.5v41q34 0 60.5 7.5t43.5 16.5q20 11 35 24q15 -14 32 -25q14 -10 33 -17.5t40 -7.5z" />
    <glyph glyph-name="uni0E0F" unicode="&#xe0f;" horiz-adv-x="420" 
d="M112 66q0 -38 -14 -52t-41 -14h-36v41h30q8 1 9.5 7t1.5 14v134q0 19 3 33.5t7 25.5q4 12 10 21q-17 14 -30 25q-11 9 -20.5 16.5t-9.5 8.5q15 29 39 53q20 20 52 36.5t77 16.5q33 0 67 -7t62 -23.5t45.5 -42.5t17.5 -63v-351q0 -11 -1.5 -29t-10 -35t-28 -29.5
t-55.5 -12.5q-16 0 -30.5 7t-25.5 16q-13 11 -26 24l-34 -52l-39 52q-15 -13 -32 -23q-14 -9 -32.5 -16t-36.5 -7v40q17 0 34.5 7.5t32.5 16.5q18 11 34 25l39 -51l35 49q1 -2 6.5 -9.5t14.5 -16t22 -15t28 -6.5q18 0 28.5 6t16.5 14.5t7.5 18t1.5 17.5v340q0 37 -13.5 59.5
t-34.5 35t-46 16.5t-47 4q-29 0 -50.5 -10.5t-36.5 -22.5q-18 -14 -31 -32l59 -50q-6 -7 -10 -18q-4 -10 -6.5 -24.5t-2.5 -37.5v-130z" />
    <glyph glyph-name="uni0E10" unicode="&#xe10;" horiz-adv-x="405" 
d="M311 -78h51v-45q0 -2 -0.5 -15.5t-8 -29t-25 -28.5t-51.5 -13q-23 0 -37.5 7t-24.5 16q-11 11 -18 24l-35 -52l-35 53q-8 -13 -21 -24q-11 -9 -29.5 -16.5t-44.5 -7.5v41q25 0 42.5 7.5t29.5 16.5q13 11 23 24l35 -50l35 50q0 -1 5.5 -8.5t15 -16.5t22 -16t27.5 -7
q17 0 26 5.5t13 13t4.5 14.5t0.5 11v46zM151 0l-41 162q-3 8 -8 8.5t-13 0.5h-18v41h38q23 0 30 -6.5t11 -14.5l44 -150q37 0 63 16t42.5 42t24 58t7.5 64q0 43 -13.5 75t-35 53.5t-49.5 32t-56 10.5q-37 0 -62.5 -14t-42.5 -31q-19 -20 -32 -45l-18 45q11 24 31 42
q17 16 46.5 29.5t77.5 13.5q43 0 78 -13q10 3 23.5 8t25.5 12.5t20 17.5t8 24h51q0 -20 -8 -34t-21 -23.5t-28 -15.5t-29 -10q41 -29 63 -75.5t22 -101.5q0 -43 -11.5 -83t-34 -70.5t-56.5 -49t-79 -18.5h-50z" />
    <glyph glyph-name="uni0E11" unicode="&#xe11;" horiz-adv-x="430" 
d="M104 0h-50v102q0 54 12 95.5t27 72t27 52t12 36.5q0 17 -10.5 25t-22.5 8q-6 0 -13 -4.5t-13 -9.5q-7 -6 -14 -14q-6 8 -12 15q-5 6 -11.5 11t-13.5 5v40q6 0 13.5 -4t14.5 -9q8 -6 15 -13q7 7 15 13q7 5 16 9t20 4q22 0 43.5 -15t21.5 -43q12 16 27 28q13 11 30.5 19.5
t39.5 8.5q26 0 47.5 -13t36.5 -34t23.5 -47t8.5 -52v-286h-50v256q0 60 -21.5 92.5t-53.5 32.5q-26 0 -48.5 -15t-41 -38.5t-32.5 -52.5t-23.5 -57t-14.5 -53t-5 -39v-7v-9v-110z" />
    <glyph glyph-name="uni0E12" unicode="&#xe12;" horiz-adv-x="680" 
d="M592 422h51v-286q0 -26 -6 -52t-20 -46.5t-37 -33.5t-57 -13q-38 0 -64.5 10t-43.5 22q-20 14 -32 33v-56h-51v304q0 33 -16.5 60t-48.5 27q-8 0 -18.5 -9t-19.5 -20q-11 -13 -22 -29q-11 16 -22 29q-9 11 -19 20t-18 9q-12 0 -25.5 -9t-24.5 -29.5t-18 -54t-7 -82.5
q0 -41 6.5 -75t20.5 -58.5t35.5 -38t51.5 -13.5q11 0 17 1t11 3l8 4v-40q-3 -2 -8 -4t-11.5 -3t-16.5 -1q-41 0 -72 17.5t-51.5 48.5t-31 71.5t-10.5 87.5q0 59 10.5 100.5t28 67.5t41 37.5t49.5 11.5q7 0 16.5 -7.5t18.5 -16.5q11 -11 21 -23q11 12 22 23q9 9 19 16.5
t17 7.5q26 0 48 -10.5t37.5 -28t24 -41t8.5 -49.5v-206q13 -17 30 -29q14 -11 35 -19.5t48 -8.5q33 0 52 8.5t29 24t12.5 39t2.5 53.5v256z" />
    <glyph glyph-name="uni0E13" unicode="&#xe13;" horiz-adv-x="680" 
d="M382 166q0 -30 2.5 -53.5t12.5 -39t28.5 -24t50.5 -8.5q28 0 49.5 8.5t36.5 19.5q18 12 30 29v324h50v-422h-50v56q-14 -19 -34 -33q-17 -12 -44 -22t-65 -10q-33 0 -55.5 13t-36 33.5t-19.5 46.5t-6 52v140q0 36 -13 58t-33.5 35t-45.5 17.5t-48 4.5q-29 0 -51.5 -10.5
t-37.5 -22.5q-18 -14 -31 -32l60 -50q-6 -6 -10 -17q-4 -9 -6.5 -24.5t-2.5 -38.5v-135q0 -8 0.5 -13.5t8.5 -6.5h30v-41h-40q-30 0 -40 17t-10 49v130q0 19 3 33.5t7 25.5q4 12 10 21q-17 14 -30 25q-11 9 -20.5 16.5t-9.5 8.5q15 29 39 53q20 20 52.5 36.5t78.5 16.5
q34 0 68 -7.5t61 -24t44 -42.5t17 -62v-130z" />
    <glyph glyph-name="uni0E14" unicode="&#xe14;" horiz-adv-x="420" 
d="M223 -2q-3 -2 -7 -4q-8 -3 -28 -3q-36 0 -66.5 15.5t-52.5 44.5t-34.5 70.5t-12.5 94.5q0 60 17 101t43.5 66.5t59.5 37t65 11.5t63.5 -7t56.5 -23.5t40.5 -42.5t15.5 -63v-296h-51v299q0 22 -10.5 39t-28 29t-40 18t-46.5 6t-48 -11t-43 -32.5t-31 -54.5t-12 -77
q0 -40 6.5 -74t20.5 -58.5t35.5 -38.5t51.5 -14q11 0 17 1t11 3l8 4v-41z" />
    <glyph glyph-name="uni0E15" unicode="&#xe15;" horiz-adv-x="420" 
d="M223 -1l-8 -4q-10 -4 -26 -4q-41 0 -72.5 17.5t-52.5 47.5t-31.5 71t-10.5 89q0 59 10.5 100.5t28 67.5t41 37.5t49.5 11.5q11 0 21 -7.5t18 -16.5q9 -11 17 -23q8 12 18 23q8 9 18.5 16.5t21.5 7.5q22 0 43 -10.5t37.5 -28t27 -41t10.5 -49.5v-304h-51v304
q0 16 -5.5 31.5t-14.5 28t-20.5 20t-23.5 7.5q-8 0 -18 -9t-20 -20q-11 -13 -23 -29q-11 16 -22 29q-9 11 -19 20t-18 9q-12 0 -25 -9t-24.5 -29.5t-18.5 -53.5t-7 -82q0 -38 6 -71.5t19.5 -59t35 -40.5t53.5 -15q11 0 17 1t11 3l8 4v-40z" />
    <glyph glyph-name="uni0E16" unicode="&#xe16;" horiz-adv-x="420" 
d="M113 61q0 -8 1 -13.5t9 -6.5h29v-41h-33q-30 0 -43.5 15t-13.5 51v130q0 19 3 33.5t7 25.5q4 12 10 21q-17 14 -30 25q-11 9 -20.5 16.5t-9.5 8.5q15 29 39 53q20 20 51.5 36.5t77.5 16.5q33 0 67 -7t61.5 -23.5t45.5 -42.5t18 -63v-240q0 -14 -5.5 -23.5t-12.5 -17.5
q-8 -9 -18 -15h-15v276q0 36 -13.5 58.5t-34.5 35t-46 17t-47 4.5q-29 0 -50.5 -10.5t-37.5 -22.5q-18 -14 -32 -32l60 -50q-5 -6 -9 -17q-3 -9 -5.5 -24.5t-2.5 -38.5v-135z" />
    <glyph glyph-name="uni0E17" unicode="&#xe17;" horiz-adv-x="415" 
d="M88 0h-51v422h51v-56q16 18 39 33q20 12 48 22.5t66 10.5q34 0 59.5 -13.5t42.5 -34.5t26 -47t9 -51v-286h-51v256q0 66 -27 95.5t-87 29.5q-28 0 -50.5 -8.5t-39.5 -19.5q-19 -12 -35 -28v-325z" />
    <glyph glyph-name="uni0E18" unicode="&#xe18;" horiz-adv-x="415" 
d="M368 355q-25 10 -51 18q-23 7 -50.5 13t-54.5 6q-15 0 -36.5 -1t-41 -7.5t-33 -19.5t-13.5 -37q0 -30 21.5 -41t53.5 -15t70 -7t70 -16t53.5 -42t21.5 -85q0 -24 -8.5 -47t-28 -41.5t-51.5 -30t-79 -11.5q-15 0 -42.5 2t-54.5 14.5t-47 40t-20 78.5v76h51v-76
q0 -35 12.5 -54t30.5 -28t37.5 -11t33.5 -2q27 0 48.5 7.5t36.5 20.5t22.5 29t7.5 33q0 46 -21.5 67.5t-53.5 30t-70 11t-70 10t-53.5 26.5t-21.5 61q0 34 18.5 55t45.5 32.5t57.5 15.5t53.5 4q28 0 55.5 -6t50.5 -14q26 -9 50 -19v-40z" />
    <glyph glyph-name="uni0E19" unicode="&#xe19;" horiz-adv-x="415" 
d="M327 424h51v-424h-51v56q-17 -19 -39 -33q-20 -12 -47.5 -22t-65.5 -10q-34 0 -59.5 13t-43 34t-26.5 46.5t-9 51.5v288h51v-256q0 -30 5 -53.5t18.5 -40t35.5 -25t57 -8.5q26 0 48.5 8.5t39.5 19.5q19 12 35 28v327z" />
    <glyph glyph-name="uni0E1A" unicode="&#xe1a;" horiz-adv-x="405" 
d="M165 -9q-33 0 -57 13t-39.5 34t-23.5 48.5t-8 56.5v279h51v-283q0 -17 4.5 -36t15.5 -35t28.5 -26.5t43.5 -10.5h42q25 0 43.5 10.5t29.5 26.5t16.5 35t5.5 36v283h51v-279q0 -29 -8.5 -56.5t-25 -48.5t-41.5 -34t-58 -13h-70z" />
    <glyph glyph-name="uni0E1B" unicode="&#xe1b;" horiz-adv-x="405" 
d="M166 -9q-33 0 -57.5 13t-40.5 34t-23.5 48.5t-7.5 56.5v279h51v-283q0 -17 4.5 -36t15.5 -35t28 -26.5t43 -10.5h42q25 0 43.5 10.5t30 26.5t17 35t5.5 36v413h51v-409q0 -29 -8.5 -56.5t-25 -48.5t-41.5 -34t-57 -13h-70z" />
    <glyph glyph-name="uni0E1C" unicode="&#xe1c;" horiz-adv-x="491" 
d="M454 422q-8 -102 -22 -180t-29 -132q-18 -63 -37 -110h-35l-93 225l-93 -225h-34q-21 49 -37 103q-14 46 -25.5 104t-11.5 118q0 13 1.5 30t7 32t17.5 25t33 10h39v-40l-27 -1q-8 0 -13 -7t-7 -16t-2.5 -18.5t-0.5 -15.5q-1 -45 7 -87.5t18 -76.5q11 -40 26 -75l92 221
h22l91 -221q14 28 26 75q11 40 21 104t15 158h51z" />
    <glyph glyph-name="uni0E1D" unicode="&#xe1d;" horiz-adv-x="491" 
d="M454 564q0 -136 -13.5 -240.5t-30.5 -176.5q-19 -84 -44 -147h-34l-93 226l-93 -226h-35q-21 49 -37 103q-14 46 -25.5 104t-11.5 118q0 13 1.5 30t7.5 32t18 25t33 10h38v-40l-27 -1q-8 0 -13 -7t-7 -16t-2.5 -18.5t-0.5 -15.5q0 -45 7.5 -87.5t17.5 -76.5
q11 -40 26 -75l92 221h22l91 -221q17 47 31 117q11 60 21 149t10 213h51z" />
    <glyph glyph-name="uni0E1E" unicode="&#xe1e;" horiz-adv-x="513" 
d="M156 0h-29l-120 422h47l90 -313l95 313h32l94 -313l90 313h48l-120 -422h-28l-100 337z" />
    <glyph glyph-name="uni0E1F" unicode="&#xe1f;" horiz-adv-x="553" 
d="M156 0h-29l-120 422h47l90 -313l95 313h32l94 -313l131 455h47l-160 -564h-28l-100 338z" />
    <glyph glyph-name="uni0E20" unicode="&#xe20;" horiz-adv-x="420" 
d="M112 66q0 -38 -13.5 -52t-43.5 -14h-34v41h30q8 1 9 6.5t1 13.5l1 135q0 19 3 33.5t7 25.5q4 12 10 21q-17 14 -30 25q-11 9 -20.5 16.5t-9.5 8.5q15 29 39 53q20 20 52.5 36.5t78.5 16.5q31 0 65 -7t61.5 -23.5t45.5 -42.5t18 -63v-240q0 -14 -5.5 -23.5t-12.5 -17.5
q-8 -9 -18 -15h-15v276q0 36 -13.5 58.5t-33.5 35t-45 17t-47 4.5q-30 0 -52.5 -10.5t-37.5 -22.5q-18 -14 -30 -32l60 -50q-6 -7 -10 -18q-4 -10 -7 -24.5t-3 -37.5v-130z" />
    <glyph glyph-name="uni0E21" unicode="&#xe21;" horiz-adv-x="415" 
d="M37 422h51v-321q16 -18 36 -32q17 -12 40 -21.5t50 -9.5q61 0 87 30.5t26 95.5v258h51v-286q0 -27 -9 -53t-27 -46.5t-43.5 -33t-58.5 -12.5q-38 0 -66.5 10t-47.5 22q-23 14 -38 33v-56h-51v422z" />
    <glyph glyph-name="uni0E22" unicode="&#xe22;" horiz-adv-x="390" 
d="M22 121q0 35 15 58.5t33 37.5q21 16 49 24q-25 5 -44 17q-17 11 -30 29.5t-13 48.5q0 28 10 46.5t24.5 29.5t31.5 15.5t31 4.5q18 0 30 -1t20 -3q9 -2 14 -4v-40q-5 1 -13 3q-7 2 -17.5 3t-26.5 1q-26 0 -39.5 -17.5t-13.5 -37.5q0 -32 31 -53t79 -21v-41
q-32 0 -54.5 -10.5t-37 -26t-21.5 -33t-7 -30.5q0 -18 4.5 -34.5t17.5 -29t35 -19.5t57 -7q33 0 55.5 10.5t35.5 26.5t18.5 35t5.5 36v283h51v-279q0 -29 -9 -56.5t-29 -48.5t-51.5 -34t-76.5 -13q-47 0 -78.5 9.5t-50.5 26.5t-27.5 41t-8.5 53z" />
    <glyph glyph-name="uni0E23" unicode="&#xe23;" horiz-adv-x="345" 
d="M288 353q-12 10 -30 19q-15 7 -36.5 13t-50.5 6q-15 0 -30 -4t-26.5 -12t-19 -20t-7.5 -28q0 -29 16.5 -44.5t40.5 -25t53 -16.5t53 -20t40.5 -36t16.5 -64q0 -24 -5.5 -47.5t-21.5 -42t-44.5 -29.5t-74.5 -11q-29 0 -51.5 5.5t-39.5 12.5q-19 8 -34 19v44q18 -12 38 -21
q17 -8 40.5 -14t49.5 -6t44 7.5t28.5 20.5t15 29t4.5 33q0 30 -16.5 45.5t-40.5 24.5t-53 15.5t-53 19t-40.5 35.5t-16.5 65q0 26 12 46t31 33.5t43.5 20t48.5 6.5q29 0 51 -6t36 -13q17 -8 29 -18v-42z" />
    <glyph glyph-name="uni0E24" unicode="&#xe24;" horiz-adv-x="420" 
d="M113 61q0 -8 1 -13.5t9 -6.5h29v-41h-35q-29 0 -42 15t-13 51v130q0 19 3 33.5t7 25.5q4 12 10 21q-17 14 -30 25q-11 9 -20.5 16.5t-9.5 8.5q15 29 39 53q20 20 52 36.5t78 16.5q32 0 66 -7t61.5 -23.5t45.5 -42.5t18 -63v-449q0 -14 -5.5 -23.5t-12.5 -17.5
q-8 -9 -18 -15h-15v485q0 36 -13.5 58t-33.5 35t-45 17.5t-47 4.5q-29 0 -51.5 -10.5t-38.5 -22.5q-18 -14 -32 -32l60 -50q-5 -6 -9 -17q-3 -9 -5.5 -24.5t-2.5 -38.5v-135z" />
    <glyph glyph-name="uni0E25" unicode="&#xe25;" horiz-adv-x="380" 
d="M343 0h-51v213q-8 -7 -22 -11q-12 -5 -31.5 -8t-49.5 -3q-15 0 -35 -4.5t-38 -14t-30.5 -26t-12.5 -40.5q0 -21 7.5 -35t19.5 -23t27 -13t30 -4q22 0 34 3q7 2 12 4v-39q-5 -2 -12 -4q-6 -2 -14 -3t-18 -1q-137 0 -137 115q0 37 15 62t38.5 39t53.5 20t60 6q34 0 54 3
t31 8q12 5 18 12v26q0 20 -5.5 40t-18 35.5t-32 25t-47.5 9.5q-34 0 -60 -13.5t-44 -30.5q-21 -19 -36 -43l-17 42q14 24 36 42q19 16 48.5 29.5t72.5 13.5q79 0 116.5 -41.5t37.5 -124.5v-266z" />
    <glyph glyph-name="uni0E26" unicode="&#xe26;" horiz-adv-x="420" 
d="M112 66q0 -38 -13.5 -52t-42.5 -14h-35v41h30q8 1 9 6.5t1 13.5l1 135q0 19 3 33.5t7 25.5q4 12 10 21q-17 14 -30 25q-11 9 -20.5 16.5t-9.5 8.5q15 29 39 53q20 20 52 36.5t77 16.5q34 0 68 -7t61.5 -23.5t45 -42.5t17.5 -63v-449q0 -14 -5.5 -23.5t-12.5 -17.5
q-8 -9 -18 -15h-15v485q0 37 -13.5 59.5t-34.5 35t-46 16.5t-47 4q-29 0 -50.5 -10.5t-37.5 -22.5q-18 -14 -32 -32l60 -50q-5 -7 -9 -18q-4 -10 -6.5 -24.5t-2.5 -37.5v-130z" />
    <glyph glyph-name="uni0E27" unicode="&#xe27;" horiz-adv-x="374" 
d="M38 77q11 -13 29 -23q14 -9 36.5 -16t52.5 -7q33 0 59.5 13.5t45.5 37.5t29.5 57t10.5 72q0 79 -39.5 124.5t-105.5 45.5q-30 0 -52.5 -5.5t-36.5 -12.5q-17 -8 -28 -18l-17 41q8 12 26 23q15 8 41 15.5t68 7.5q40 0 75.5 -14t62 -42t42 -69.5t15.5 -95.5t-15.5 -95.5
t-42.5 -69t-62.5 -41.5t-75.5 -14q-42 0 -67.5 7t-40.5 15q-18 10 -26 23z" />
    <glyph glyph-name="uni0E28" unicode="&#xe28;" horiz-adv-x="425" 
d="M88 168q13 18 31 32q15 12 35 22t44 10v-51q-23 0 -43 -8.5t-35 -18.5q-18 -11 -32 -26v-128h-51v296q0 33 15 58.5t39.5 42.5t56.5 26t66 9q17 0 32 -1.5t30 -6.5q10 4 20.5 9.5t19.5 12t15 15.5t6 20h51q0 -33 -21 -50t-44 -27q28 -17 46.5 -43.5t18.5 -64.5v-296h-51
v296q0 24 -11 42t-28 29.5t-39.5 17.5t-44.5 6q-23 0 -45.5 -5.5t-40.5 -17t-29 -29.5t-11 -43v-128z" />
    <glyph glyph-name="uni0E29" unicode="&#xe29;" horiz-adv-x="405" 
d="M227 211v45h90v165h51v-165h30v-45h-30v-68q0 -27 -8 -54t-24.5 -48.5t-41.5 -35.5t-59 -14h-70q-34 0 -58.5 13.5t-40 35.5t-22.5 49t-7 54v279h51v-284q0 -17 4.5 -35.5t15.5 -34.5t28 -26.5t43 -10.5h42q25 0 43 10.5t30 26.5t17.5 35t5.5 36v72h-90z" />
    <glyph glyph-name="uni0E2A" unicode="&#xe2a;" horiz-adv-x="380" 
d="M342 0h-51v213q-7 -7 -20 -11q-11 -5 -30 -8t-49 -3q-15 0 -36 -4t-39.5 -13.5t-31.5 -26t-13 -41.5q0 -21 7.5 -35t19.5 -23t27 -13t30 -4q22 0 34 3q7 2 12 4v-38q-5 -3 -11 -5t-14.5 -3t-19.5 -1q-135 0 -135 115q0 37 15.5 62t39.5 39t54.5 20t60.5 6q34 0 53 3t30 8
t16 12v26q0 20 -5.5 40t-17.5 35.5t-31.5 25t-47.5 9.5q-34 0 -60 -13.5t-44 -30.5q-21 -19 -37 -43l-16 42q14 24 36 42q19 16 48.5 29.5t72.5 13.5q11 0 22 -1t22 -4q22 8 40 21.5t18 32.5h50q0 -29 -17.5 -46t-41.5 -27q31 -21 45.5 -57t14.5 -85v-266z" />
    <glyph glyph-name="uni0E2B" unicode="&#xe2b;" horiz-adv-x="395" 
d="M284 422h66l-139 -140q20 -4 45.5 -13.5t48 -28t38 -49t15.5 -75.5v-116h-51v102q0 44 -15 73t-35.5 46.5t-41 25t-31.5 9.5l-96 -98v-158h-51v422h51v-197z" />
    <glyph glyph-name="uni0E2C" unicode="&#xe2c;" horiz-adv-x="553" 
d="M157 0h-30l-120 422h47l90 -315l95 315h32l94 -315l72 253q2 6 3 12.5t1 11.5q0 19 -10 32.5t-22 22.5q-14 11 -32 17q34 9 60 24q23 13 41.5 33.5t18.5 50.5h46q0 -38 -18 -59.5t-39 -32.5q-26 -13 -57 -17q18 -9 32 -20q12 -10 21 -25t7 -35q0 -7 -3 -17l-103 -358h-30
l-98 336z" />
    <glyph glyph-name="uni0E2D" unicode="&#xe2d;" horiz-adv-x="415" 
d="M22 301q7 36 29 65q19 25 54.5 45.5t97.5 20.5q52 0 88.5 -20t58.5 -52t32 -71.5t10 -77.5q0 -58 -15.5 -99.5t-41.5 -68.5t-60.5 -39.5t-71.5 -12.5q-38 0 -71.5 10t-58 30.5t-38.5 50.5t-14 69q0 30 8.5 45.5t38.5 15.5h84v-41h-65q-15 -2 -15 -15q-1 -21 4 -43
t20 -40.5t40.5 -30t65.5 -11.5q37 0 63.5 13.5t43 37.5t24.5 57t8 72q0 38 -9 71t-26.5 57t-43.5 38t-59 14q-42 0 -67 -14t-39 -31q-17 -20 -25 -45h-50z" />
    <glyph glyph-name="uni0E2E" unicode="&#xe2e;" horiz-adv-x="415" 
d="M22 301q7 36 29 65q19 25 54.5 45.5t97.5 20.5q16 0 29.5 -2t24.5 -5q10 3 21.5 7.5t21.5 11.5t17 16t7 21h47q0 -17 -6 -29.5t-16 -21.5t-21.5 -15t-23.5 -10q24 -16 40.5 -38.5t27 -48t15.5 -53.5t5 -54q0 -58 -15.5 -99.5t-41.5 -68.5t-60.5 -39.5t-71.5 -12.5
q-38 0 -71.5 10t-58 30.5t-38.5 50.5t-14 69q0 33 9.5 47t37.5 14h84v-41h-65q-15 0 -15 -15q-1 -21 4.5 -43.5t20 -40.5t40 -29.5t65.5 -11.5q37 0 63.5 13.5t43.5 37.5t24.5 57t7.5 72q0 38 -9 71t-26.5 57t-43.5 38t-59 14q-42 0 -67.5 -14t-39.5 -31q-17 -20 -24 -45
h-50z" />
    <glyph glyph-name="uni0E2F" unicode="&#xe2f;" horiz-adv-x="380" 
d="M73 422q11 -42 30.5 -66t61.5 -24q45 0 79.5 23t45.5 67h52v-279q0 -33 -2.5 -59t-11.5 -45t-27 -29t-49 -10v41q10 0 17.5 2t12.5 12t7 31.5t2 59.5v222q-11 -21 -29 -38q-15 -14 -38.5 -26.5t-55.5 -12.5q-60 0 -97.5 32.5t-48.5 98.5h51z" />
    <glyph glyph-name="uni0E30" unicode="&#xe30;" horiz-adv-x="245" 
d="M206 100l-17 -40h-73q-39 0 -59 15t-20 61v26h47v-38q0 -13 8 -18.5t34 -5.5h80zM206 321l-17 -40h-72q-38 0 -59 14.5t-21 60.5v26h47v-37q0 -13 8 -18.5t34 -5.5h80z" />
    <glyph glyph-name="uni0E31" unicode="&#xe31;" 
d="M23 538l-16 -41h-167q-42 0 -61 17t-19 60v26h47v-38q0 -13 8 -18.5t34 -5.5h174z" />
    <glyph glyph-name="uni0E32" unicode="&#xe32;" horiz-adv-x="330" 
d="M22 395q11 10 27 18q14 7 33.5 13t45.5 6q27 0 56 -8.5t53.5 -27.5t40 -48.5t15.5 -71.5v-276h-51v266q0 33 -10 56.5t-27.5 38.5t-40 22.5t-47.5 7.5q-19 0 -36 -6t-30 -13q-16 -8 -29 -18v41z" />
    <glyph glyph-name="uni0E33" unicode="&#xe33;" horiz-adv-x="330" 
d="M-147 573q0 -14 10.5 -24.5t24.5 -10.5t25 10.5t11 24.5t-11 25t-25 11t-24.5 -11t-10.5 -25zM-188 574q0 31 22 53t54 22t54 -22t22 -53q0 -32 -22 -54.5t-54 -22.5t-54 22.5t-22 54.5zM22 395q11 10 27 18q14 7 33.5 13t45.5 6q27 0 56 -8.5t53.5 -27.5t40 -48.5
t15.5 -71.5v-276h-51v266q0 33 -10 56.5t-27.5 38.5t-40 22.5t-47.5 7.5q-19 0 -36 -6t-30 -13q-16 -8 -29 -18v41z" />
    <glyph glyph-name="uni0E34" unicode="&#xe34;" 
d="M-327 497l16 43h253v-43h-269z" />
    <glyph glyph-name="uni0E35" unicode="&#xe35;" 
d="M-327 497l16 42h202v61h51v-103h-269z" />
    <glyph glyph-name="uni0E36" unicode="&#xe36;" 
d="M-140 558q0 -8 6 -14t14 -6q9 0 15.5 6t6.5 14q0 9 -6.5 15.5t-15.5 6.5q-8 0 -14 -6.5t-6 -15.5zM-327 497l17 42h133l-3 15q-1 27 17 46.5t45 19.5q23 0 41.5 -17t18.5 -44q0 -25 -16.5 -43.5t-43.5 -18.5h-209z" />
    <glyph glyph-name="uni0E37" unicode="&#xe37;" 
d="M-327 497l16 42h124v61h44v-61h34v61h51v-103h-269z" />
    <glyph glyph-name="uni0E38" unicode="&#xe38;" 
d="M-36 -207h-51v67q0 9 -6 16.5t-16 7.5h-28v42h40q29 0 45 -18.5t16 -47.5v-67z" />
    <glyph glyph-name="uni0E39" unicode="&#xe39;" 
d="M-204 -140q0 9 -6 16.5t-16 7.5h-28v42h38q32 0 47.5 -19t15.5 -51q0 -31 33 -31t33 31v70h51v-70q0 -14 -3 -27t-12 -23t-25 -16t-42 -6q-29 0 -46 6.5t-26 17t-11.5 24.5t-2.5 28z" />
    <glyph glyph-name="uni0E3A" unicode="&#xe3a;" 
d="M-87 -127v53h51v-53h-51z" />
    <glyph glyph-name="uni0E3F" unicode="&#xe3f;" horiz-adv-x="375" 
d="M88 441v-164h63q52 0 79 22t27 62q0 36 -22.5 58t-77.5 22h-69zM88 236v-195h80q25 0 47 7t38 19.5t25 30t9 38.5q0 48 -35 74t-95 26h-69zM338 136q0 -30 -11.5 -54.5t-32.5 -42.5t-50 -28t-63 -11v-83h-48v83h-96v482h96v85h48v-85q60 -2 93.5 -33t33.5 -78
q0 -39 -23.5 -71.5t-63.5 -43.5q48 -8 82.5 -39t34.5 -81z" />
    <glyph glyph-name="uni0E40" unicode="&#xe40;" horiz-adv-x="150" 
d="M37 422h51v-361q0 -8 1 -13.5t9 -6.5h30v-41h-36q-30 0 -42.5 15.5t-12.5 50.5v356z" />
    <glyph glyph-name="uni0E41" unicode="&#xe41;" horiz-adv-x="320" 
d="M202 422h51v-361q0 -8 1 -13.5t9 -6.5h30v-41h-34q-30 0 -43.5 15t-13.5 51v356zM37 422h51v-361q0 -8 1 -13.5t9 -6.5h30v-41h-34q-30 0 -43.5 15t-13.5 51v356z" />
    <glyph glyph-name="uni0E42" unicode="&#xe42;" horiz-adv-x="203" 
d="M90 402q0 31 -3 54.5t-7 41.5t-7 32.5t-3 28.5q0 45 31 64.5t105 19.5h81v-42h-77q-53 0 -71 -9.5t-18 -33.5q0 -14 3 -28t7 -32t7 -41.5t3 -54.5v-341q0 -8 1 -13.5t9 -6.5h30v-41h-34q-30 0 -43.5 14t-13.5 52v336z" />
    <glyph glyph-name="uni0E43" unicode="&#xe43;" horiz-adv-x="263" 
d="M199 60q0 -8 1 -13.5t9 -6.5h30v-40h-35q-29 0 -42.5 14t-13.5 52v311q0 30 3 51t7 38t7 31.5t3 29.5q0 50 -22.5 67t-55.5 17q-20 0 -33.5 -7t-22.5 -15q-11 -10 -17 -22l-17 42q6 11 18 21q11 8 29 15t47 7q61 0 93 -30t32 -95q0 -23 -3 -36.5t-7 -28t-7 -33.5t-3 -52
v-317z" />
    <glyph glyph-name="uni0E44" unicode="&#xe44;" horiz-adv-x="263" 
d="M194 61q0 -8 1 -13.5t9 -6.5h30v-41h-35q-29 0 -42.5 14t-13.5 52v440q0 10 0.5 28t-1.5 34.5t-8 27t-20 5.5q-8 -3 -13.5 -10.5t-10.5 -15.5q-5 -9 -9 -19q-11 12 -24 22q-11 8 -25.5 15.5t-31.5 7.5v41q17 0 30 -4.5t22.5 -10.5t15 -12t7.5 -8q6 10 15 18
q8 7 19.5 12.5t28.5 5.5q22 0 33.5 -11t16.5 -29.5t5.5 -43.5t0.5 -53v-445z" />
    <glyph glyph-name="uni0E45" unicode="&#xe45;" horiz-adv-x="330" 
d="M22 395q11 10 27 18q14 7 33 13t45 6q27 0 56.5 -8.5t54 -27.5t40 -48.5t15.5 -71.5v-429q0 -14 -6 -23.5t-13 -17.5q-8 -9 -18 -15h-14v475q0 64 -36.5 94.5t-88.5 30.5q-19 0 -36 -6t-30 -13q-16 -8 -29 -18v41z" />
    <glyph glyph-name="uni0E46" unicode="&#xe46;" horiz-adv-x="390" 
d="M353 -153q0 -14 -6 -23.5t-13 -17.5q-8 -9 -18 -15h-14v505q0 19 -2.5 36t-8.5 30t-16.5 21t-27.5 8q-8 0 -18.5 -8.5t-19.5 -19.5q-11 -12 -22 -28q-11 16 -22 28q-9 11 -19 19.5t-18 8.5q-26 0 -40.5 -22.5t-14.5 -52.5q0 -20 4.5 -33.5t9.5 -21.5q6 -10 15 -16
l-17 -43q-18 6 -32 21q-12 13 -21.5 35t-9.5 58q0 53 26 84.5t69 31.5q11 0 23 -7.5t23 -15.5q12 -11 24 -23q12 12 24 23q11 8 23 15.5t23 7.5q25 0 43.5 -9.5t30 -26t17 -37.5t5.5 -43v-469z" />
    <glyph glyph-name="uni0E47" unicode="&#xe47;" 
d="M-154 640q23 0 37.5 3.5t22.5 8.5q10 5 15 12v-40q-5 -6 -15 -10q-8 -4 -22.5 -6.5t-37.5 -2.5h-70q-30 0 -41 -12t-11 -29q0 -9 7.5 -20.5t24.5 -11.5q14 0 21.5 4.5t12.5 9.5q5 6 7 15h18q1 -9 5 -15q3 -5 9 -9.5t17 -4.5q19 0 25 11.5t6 17.5h44q0 -29 -19 -46.5
t-46 -17.5q-11 0 -20 2.5t-16 5.5q-8 4 -14 9q-6 -5 -15 -9q-8 -3 -19 -5.5t-26 -2.5q-9 0 -20.5 3t-21 11t-16.5 20.5t-7 32.5q0 26 10 41.5t24 23t28 9.5t23 2h80z" />
    <glyph glyph-name="uni0E48" unicode="&#xe48;" 
d="M-87 600h51v-103h-51v103z" />
    <glyph glyph-name="uni0E49" unicode="&#xe49;" 
d="M-6 539l-16 -42h-143q-24 0 -37.5 13.5t-13.5 27.5q0 13 -6 16.5t-12 3.5h-31v42h63q15 0 27.5 -13t12.5 -28q0 -8 6 -14t14 -6h136z" />
    <glyph glyph-name="uni0E4A" unicode="&#xe4a;" 
d="M-166 580q4 6 11 10q5 4 14 7t20 3q29 0 43 -16t14 -35q0 -8 3 -9t8 -1h47l-16 -42h-42q-28 0 -36.5 11t-8.5 26q0 14 -6 22t-16 8q-13 0 -19.5 -9.5t-6.5 -20.5h-18q0 10 -5.5 20t-20.5 10q-8 0 -16.5 -8t-8.5 -22q0 -17 9 -28q4 -5 9 -9h-50q-5 3 -9 8t-6.5 11.5
t-2.5 17.5q0 27 19 46.5t46 19.5q11 0 19.5 -3t14.5 -7t11 -10z" />
    <glyph glyph-name="uni0E4B" unicode="&#xe4b;" 
d="M-87 600h51v-30h49v-42h-49v-31h-51v31h-50v42h50v30z" />
    <glyph glyph-name="uni0E4C" unicode="&#xe4c;" 
d="M-124 497h-51v18q0 37 21 61t63 24h45l-16 -42h-18q-21 0 -32.5 -12.5t-11.5 -31.5v-17z" />
    <glyph glyph-name="uni0E4D" unicode="&#xe4d;" 
d="M-147 573q0 -14 10.5 -24.5t24.5 -10.5t25 10.5t11 24.5t-11 25t-25 11t-24.5 -11t-10.5 -25zM-188 574q0 31 22 53t54 22t54 -22t22 -53q0 -32 -22 -54t-54 -22t-54 22t-22 54z" />
    <glyph glyph-name="uni0E4E" unicode="&#xe4e;" 
d="M-212 497q-5 10 -7 18.5t-2 16.5q0 30 21.5 50t56.5 20q0 32 21 47.5t73 15.5v-31q-15 0 -27.5 -0.5t-21.5 -6.5t-14 -19.5t-5 -39.5q-21 0 -39 -7.5t-18 -30.5q0 -16 7 -25q4 -5 8 -8h-53z" />
    <glyph glyph-name="uni0E4F" unicode="&#xe4f;" horiz-adv-x="445" 
d="M223 310q-27 0 -51.5 -10.5t-43 -28.5t-29 -42.5t-10.5 -52.5q0 -27 10.5 -51.5t29 -43t43 -29t51.5 -10.5q28 0 52.5 10.5t42.5 29t28.5 43t10.5 51.5q0 28 -10.5 52.5t-28.5 42.5t-42.5 28.5t-52.5 10.5zM223 363q39 0 73 -14.5t59.5 -40t40 -59.5t14.5 -73
t-14.5 -72.5t-40 -58.5t-59.5 -39.5t-73 -14.5t-72.5 14.5t-59 39.5t-40 58.5t-14.5 72.5t14.5 73t40 59.5t59 40t72.5 14.5zM223 267q38 0 64.5 -26.5t26.5 -64.5q0 -19 -7 -35.5t-19.5 -29t-29 -19.5t-35.5 -7q-38 0 -64.5 26.5t-26.5 64.5q0 19 7 35.5t19.5 29t29 19.5
t35.5 7z" />
    <glyph glyph-name="uni0E50" unicode="&#xe50;" horiz-adv-x="416" 
d="M73 176q0 -30 10.5 -56t28.5 -45.5t42.5 -31t52.5 -11.5t53 11.5t43.5 31t29 45.5t10.5 56t-10.5 56.5t-29 46t-43.5 31t-53 11.5t-52.5 -11.5t-42.5 -31t-28.5 -46t-10.5 -56.5zM22 176q0 39 14.5 73t39.5 59t59 39.5t73 14.5t72.5 -14.5t59 -39.5t40 -59t14.5 -73
t-14.5 -72.5t-40 -58.5t-59 -39.5t-72.5 -14.5t-72.5 14.5t-59 39.5t-40 58.5t-14.5 72.5z" />
    <glyph glyph-name="uni0E51" unicode="&#xe51;" horiz-adv-x="415" 
d="M171 1h4q30 0 59.5 12t53.5 33.5t39 51t15 63.5q0 41 -11 71t-30.5 50t-45 29.5t-54.5 9.5q-38 0 -62.5 -12.5t-39 -30t-20.5 -36t-6 -30.5q0 -17 5.5 -33.5t14 -29t20 -20t23.5 -7.5q26 0 36 11t10 28v19h51v-18q0 -13 -4.5 -27.5t-15.5 -26.5t-30 -20t-47 -8
q-21 0 -41.5 9t-36.5 26t-26 41.5t-10 55.5q0 28 12.5 55t36 48.5t56.5 34.5t74 13q38 0 72.5 -12.5t61 -38t42.5 -63t16 -88.5q0 -41 -17.5 -77.5t-48 -63.5t-71 -43t-86.5 -16h-5t-6 1z" />
    <glyph glyph-name="uni0E52" unicode="&#xe52;" horiz-adv-x="520" 
d="M216 -9q-22 0 -45 6.5t-42 22t-31 40.5t-12 62v301q0 16 -2.5 33t-11 31.5t-24 24t-41.5 9.5v41h15q37 0 59.5 -14t35.5 -35t17.5 -46t4.5 -47v-307q0 -25 9.5 -40.5t23 -24t29 -11.5t26.5 -3h131q13 0 28.5 3t29 12t22.5 25t9 43v113q0 16 -3.5 31.5t-10.5 27.5
t-18.5 19.5t-26.5 7.5q-11 0 -19.5 -6t-14.5 -14q-7 -9 -12 -20q-6 11 -12 20q-6 8 -13.5 14t-18.5 6q-23 0 -37.5 -13.5t-14.5 -32.5q0 -23 8.5 -36.5t21 -20.5t27 -9.5t25.5 -2.5v-41q-17 0 -40 4t-44 16t-35.5 34t-14.5 58q0 13 5.5 29t16.5 29.5t27.5 22.5t38.5 9
q15 0 26 -3.5t19 -8.5q9 -5 16 -12q5 7 14 12q7 5 18 8.5t26 3.5q25 0 43 -11.5t30 -30.5t18 -42.5t6 -47.5v-108q0 -37 -11.5 -62t-29 -40.5t-39.5 -22t-43 -6.5h-159z" />
    <glyph glyph-name="uni0E53" unicode="&#xe53;" horiz-adv-x="515" 
d="M357 321q-14 0 -28.5 -9.5t-25.5 -28t-18 -47t-7 -65.5h-41q0 34 -7 62t-18.5 47.5t-26 30t-28.5 10.5q-33 0 -59 -35.5t-26 -107.5q0 -28 6.5 -54.5t20 -47t33 -33t45.5 -12.5q17 0 27 5q5 2 9 5v-42q-5 -2 -11 -4q-5 -2 -11.5 -3t-14.5 -1q-31 0 -59 14t-49 39
t-33.5 59t-12.5 75q0 93 33.5 139t89.5 46q30 0 51 -13.5t35 -30.5q16 -19 25 -43q9 24 25 43q13 17 34 30.5t51 13.5q55 0 91 -45t36 -140q0 -42 -7.5 -74.5t-16.5 -55.5q-11 -27 -24 -48h-52q13 20 24 47q9 23 17 56t8 75q0 28 -5.5 54t-16 45.5t-26.5 31.5t-37 12z" />
    <glyph glyph-name="uni0E54" unicode="&#xe54;" horiz-adv-x="500" 
d="M159 310q-21 0 -37 -13t-27 -33t-16.5 -44.5t-5.5 -48.5q0 -23 5 -46t15 -41t25 -29.5t36 -11.5l184 -2q-28 15 -49 36q-19 18 -34 45.5t-15 64.5h53q0 -32 12.5 -58.5t30.5 -46t39 -30.5t38 -11h50v-41h-303q-35 0 -60.5 14.5t-43 38t-26 54.5t-8.5 64q0 34 10 66.5
t28 58t43.5 41t57.5 15.5h170q16 0 30.5 3t25.5 11t18 23.5t7 40.5v132l51 1v-122q0 -37 -9.5 -62t-26 -40.5t-39 -22t-48.5 -6.5h-181z" />
    <glyph glyph-name="uni0E55" unicode="&#xe55;" horiz-adv-x="500" 
d="M252 386q0 -13 8.5 -21.5t21.5 -8.5h3q11 2 19 10t8 20t-9 21t-21 9q-13 0 -21.5 -9t-8.5 -21zM205 385q0 32 22.5 54.5t54.5 22.5t54.5 -22.5t22.5 -54.5q0 -18 -6 -33q23 3 41 18t18 55v137h50v-122q0 -37 -8.5 -62t-24 -40t-36.5 -21.5t-46 -6.5h-188q-21 0 -37 -13
t-27.5 -33t-17 -44.5t-5.5 -48.5t5 -47t15.5 -41.5t26.5 -30t38 -11.5h181q-28 15 -49 36q-19 18 -34 45.5t-15 64.5h52q0 -32 12 -58.5t30.5 -46t40 -30.5t39.5 -11h48v-41h-303q-34 0 -59.5 14t-43 37.5t-26 54.5t-8.5 65t9.5 66.5t27.5 58t44 41t58 15.5h51q-7 14 -7 33z
" />
    <glyph glyph-name="uni0E56" unicode="&#xe56;" horiz-adv-x="570" 
d="M186 211q-22 82 -39 140.5t-36 96t-43 55.5t-61 18v42h21q48 0 78 -26t50.5 -67.5t34.5 -92.5t30 -101q11 24 30 43q17 16 43.5 29.5t67.5 13.5q43 0 77.5 -13.5t58.5 -37t37 -56t13 -69.5q0 -41 -12.5 -77t-36.5 -62t-58.5 -41t-78.5 -15q-55 0 -99 29.5t-64 80.5h50
q7 -17 20 -30t28.5 -22t32.5 -13.5t32 -4.5q29 0 53.5 11.5t42.5 32t28.5 49t10.5 62.5q0 26 -9 50.5t-26.5 43t-42.5 30t-57 11.5q-27 0 -47.5 -9t-35.5 -24t-25 -35t-15 -42h-53z" />
    <glyph glyph-name="uni0E57" unicode="&#xe57;" horiz-adv-x="670" 
d="M347 311q-14 0 -29 -7.5t-27 -22.5t-20 -37.5t-8 -52.5h-31q0 26 -8 48t-20 38t-27 25t-30 9q-32 0 -53 -30.5t-21 -102.5q0 -28 6.5 -54.5t19.5 -47t32.5 -33t46.5 -12.5q8 0 14.5 1t11.5 3t9 5v-41q-4 -2 -9 -4t-12 -3t-15 -1q-29 0 -57 13t-50 37.5t-35 59t-13 77.5
q0 46 10 79t26.5 54t37 31t40.5 10q29 0 49.5 -12.5t34 -27.5t20 -29t7.5 -17q0 2 6.5 15.5t19.5 29.5t34 28.5t50 12.5q21 0 41.5 -9.5t37 -30.5t27 -54t10.5 -80q0 -42 -8.5 -78t-18.5 -60q12 1 26 6t26 15.5t20.5 28t8.5 43.5v301q0 19 4.5 41.5t17 42t35.5 32.5t60 13
h14v-42q-26 0 -42 -7t-24.5 -18.5t-11 -26t-2.5 -30.5v-301q0 -37 -11.5 -63t-30 -42.5t-41 -24.5t-44.5 -8h-77q13 20 24 47q9 23 16.5 56t7.5 75q0 28 -4 52.5t-12.5 42.5t-23 28t-35.5 10z" />
    <glyph glyph-name="uni0E58" unicode="&#xe58;" horiz-adv-x="500" 
d="M412 131h50v-26q0 -32 -10.5 -54t-28.5 -35.5t-41.5 -19t-48.5 -5.5q-28 0 -47.5 7t-32.5 15q-15 10 -25 23q-7 -13 -18 -23q-10 -8 -24.5 -15t-37.5 -7q-21 0 -43.5 11.5t-41 34.5t-30 58.5t-11.5 82.5q0 32 10.5 63.5t31.5 56t52.5 39.5t73.5 15h140q16 0 30.5 3
t25.5 11t18 23.5t7 40.5v132h51v-125q0 -69 -34 -97.5t-87 -28.5h-154q-26 0 -47 -11.5t-36 -30.5t-23.5 -43.5t-8.5 -50.5q0 -28 5 -54t16 -46t27 -32t39 -12q18 0 31 9.5t21 21.5q10 13 17 31q10 -18 25 -31q13 -12 32.5 -21.5t47.5 -9.5q12 0 26 3.5t26 12t19.5 22.5
t7.5 36v26z" />
    <glyph glyph-name="uni0E59" unicode="&#xe59;" horiz-adv-x="610" 
d="M522 562h51v-122q0 -31 -5 -60t-16.5 -51t-29.5 -35t-45 -13q-29 0 -48 11t-34 24t-27.5 24t-28.5 11q-15 0 -26.5 -5.5t-19 -14t-11.5 -18.5t-4 -19q0 -7 1 -10l16 -55q4 -13 9 -31.5t12.5 -46t17.5 -64.5t24 -87h-46l-69 247q-3 10 -9 23.5t-16 25t-24.5 19.5t-35.5 8
q-14 0 -28.5 -9t-27.5 -27.5t-21 -45.5t-8 -63q0 -27 5.5 -53.5t17.5 -47.5t30.5 -33.5t45.5 -12.5q14 0 24 4q4 2 7 5v-41q2 1 -6 -3.5t-23 -4.5q-30 0 -57.5 13t-48.5 37.5t-33.5 59t-12.5 77.5q0 46 13.5 80.5t34 58t45.5 35t48 11.5q34 0 54.5 -13.5t36.5 -28.5
q12 34 34 52.5t51 18.5q22 0 39 -11t32.5 -24.5t30 -24.5t31.5 -11q25 0 37.5 33.5t12.5 85.5v122z" />
    <glyph glyph-name="uni0E5A" unicode="&#xe5a;" horiz-adv-x="500" 
d="M73 422q11 -42 30.5 -66t62.5 -24q44 0 78.5 23t45.5 67h52v-279q0 -36 -3 -62.5t-13 -44.5t-27.5 -27t-46.5 -9v41q10 0 17.5 2t12.5 12t7 30.5t2 57.5v225q-11 -21 -29 -38q-15 -14 -38 -26.5t-55 -12.5q-60 0 -98 32.5t-49 98.5h51zM405 0v422h50v-422h-50z" />
    <glyph glyph-name="uni0E5B" unicode="&#xe5b;" horiz-adv-x="705" 
d="M214 -9q-36 0 -68.5 14t-56.5 38.5t-38 57t-14 69.5q0 40 12.5 75t35.5 61.5t55 41.5t70 15q27 0 49 -5.5t38.5 -14.5t28.5 -20t20 -23q19 -28 25 -63h-49q-6 24 -20 42q-12 16 -34 29t-58 13q-27 0 -49.5 -12.5t-38.5 -33.5t-25 -48t-9 -57q0 -28 8.5 -53t25 -44
t40 -30.5t52.5 -11.5q26 0 46 7.5t34 16.5q16 11 27 24l52 -50l39 50l45 -50l41 49q11 -13 22 -24q10 -9 22 -16t26 -7t23 4.5t14.5 11t7.5 13t2 11.5q0 12 -2.5 21t-5.5 15q-4 7 -8 11h52q4 -5 8 -11q3 -5 6 -13.5t3 -20.5q0 -7 -2 -21t-11 -27.5t-26 -23.5t-47 -10
q-19 0 -34.5 7t-26.5 15q-13 10 -24 23l-41 -49l-46 49l-39 -49l-52 49q-12 -13 -28 -23q-14 -8 -33 -15t-44 -7z" />
    <glyph glyph-name="endash" unicode="&#x2013;" horiz-adv-x="365" 
d="M37 190v43h291v-43h-291z" />
    <glyph glyph-name="emdash" unicode="&#x2014;" horiz-adv-x="555" 
d="M37 190v43h481v-43h-481z" />
    <glyph glyph-name="quoteleft" unicode="&#x2018;" horiz-adv-x="125" 
d="M88 360h-51v56q0 21 10 40.5t23 34.5q15 18 34 32h37q-16 -19 -27 -37q-10 -16 -18 -34.5t-8 -35.5v-56z" />
    <glyph glyph-name="quoteright" unicode="&#x2019;" horiz-adv-x="125" 
d="M37 523h51v-57q0 -22 -10.5 -41t-23.5 -33q-15 -17 -33 -32h-37q15 18 26 36q10 16 18.5 34.5t8.5 35.5v57z" />
    <glyph glyph-name="quotedblleft" unicode="&#x201c;" horiz-adv-x="235" 
d="M191 360h-52v56q0 21 10 40.5t23 34.5q14 18 33 32h40q-16 -19 -27 -37q-11 -16 -19 -34.5t-8 -35.5v-56zM89 360h-52v56q0 21 10 40.5t23 34.5q15 18 34 32h40q-16 -19 -28 -37q-11 -16 -19 -34.5t-8 -35.5v-56z" />
    <glyph glyph-name="quotedblright" unicode="&#x201d;" horiz-adv-x="235" 
d="M37 523h52v-57q0 -22 -10.5 -41t-22.5 -33q-15 -17 -33 -32h-39q15 18 26 36q10 16 18.5 34.5t8.5 35.5v57zM139 523h52v-57q0 -22 -10.5 -41t-23.5 -33q-15 -17 -33 -32h-40q15 18 27 36q11 16 19.5 34.5t8.5 35.5v57z" />
    <glyph glyph-name="bullet" unicode="&#x2022;" horiz-adv-x="247" 
d="M124 300q37 0 62 -25t25 -62q0 -36 -25 -61.5t-62 -25.5q-36 0 -61.5 25.5t-25.5 61.5q0 37 25.5 62t61.5 25z" />
    <glyph glyph-name="ellipsis" unicode="&#x2026;" horiz-adv-x="545" 
d="M457 0v53h51v-53h-51zM247 0v53h51v-53h-51zM37 0v53h51v-53h-51z" />
    <glyph glyph-name="Euro" unicode="&#x20ac;" horiz-adv-x="495" 
d="M37 266v46h58q18 82 80 131.5t153 49.5q32 0 68.5 -3.5t60.5 -14.5l-17 -42q-29 14 -54.5 16t-57.5 2q-68 0 -115.5 -37t-66.5 -102h202v-46h-209q-1 -8 -1 -15v-15v-13t1 -12h189v-45h-183q17 -63 64 -99t119 -36q19 0 33.5 1.5t27 5t25 8.5t26.5 13l17 -42
q-29 -17 -63.5 -21.5t-71.5 -4.5q-90 0 -149.5 46.5t-79.5 128.5h-56v45h50v25v15t1 15h-51z" />
    <glyph glyph-name="trademark" unicode="&#x2122;" horiz-adv-x="387" 
d="M348 485v-168h-15v142l-66 -142h-10l-62 142v-142h-18v168h26l59 -139l64 139h22zM152 485v-15h-47v-153h-19v153h-49v15h115z" />
    <glyph glyph-name="uni0E10.alt" horiz-adv-x="405" 
d="M151 0l-41 162q-3 8 -8 8.5t-13 0.5h-18v41h38q23 0 30 -6.5t11 -14.5l44 -150q37 0 63 16t42.5 42t24 58t7.5 64q0 43 -13.5 75t-35 53.5t-49.5 32t-56 10.5q-37 0 -62.5 -14t-42.5 -31q-19 -20 -32 -45l-18 45q11 24 31 42q17 16 46.5 29.5t77.5 13.5q43 0 78 -13
q10 3 23.5 8t25.5 12.5t20 17.5t8 24h51q0 -20 -8 -34t-21 -23.5t-28 -15.5t-29 -10q41 -29 63 -75.5t22 -101.5q0 -43 -11.5 -83t-34 -70.5t-56.5 -49t-79 -18.5h-50z" />
    <glyph glyph-name="uni0E0D.alt" horiz-adv-x="680" 
d="M332 276q0 36 -13.5 58.5t-34.5 35t-46 17t-47 4.5q-29 0 -50.5 -10.5t-37.5 -22.5q-18 -14 -32 -32l59 -50q-5 -7 -9 -18q-3 -10 -5.5 -24.5t-2.5 -37.5v-135q0 -8 1 -13.5t9 -6.5h29v-41h-36q-26 0 -40 14t-14 52v130q0 19 3 33.5t7 25.5q4 12 10 21q-17 14 -30 25
q-11 9 -20.5 16.5t-9.5 8.5q15 29 39 53q20 20 52 36.5t79 16.5q32 0 66 -7t61.5 -23.5t45 -42.5t17.5 -63v-157q0 -17 3.5 -36t12.5 -35t25 -26.5t41 -10.5h42q25 0 42 10.5t26.5 26.5t13.5 35t4 36v283h51v-279q0 -29 -7 -56.5t-21.5 -48.5t-37.5 -34t-56 -13h-80
q-34 0 -55.5 13.5t-33.5 35t-16 49t-4 54.5v133z" />
    <glyph glyph-name="uni0E47.sm" 
d="M-200 640q23 0 37 3.5t23 8.5q10 5 16 13l-1 -41q-5 -6 -15 -10q-8 -4 -22.5 -6.5t-37.5 -2.5h-50q-30 0 -40.5 -12t-10.5 -29q0 -9 3.5 -20.5t17.5 -11.5q11 0 17.5 4.5t9.5 9.5q4 6 4 15h19q2 -9 6 -15q3 -5 8.5 -9.5t15.5 -4.5q18 0 25 10.5t7 18.5h44
q0 -27 -19 -45.5t-47 -18.5q-11 0 -20 2.5t-16 5.5q-8 4 -14 9q-4 -5 -10 -9q-6 -3 -15.5 -5.5t-24.5 -2.5q-6 0 -15.5 3t-18 11t-15 20.5t-6.5 32.5q0 26 10 41.5t24 23t28.5 9.5t22.5 2h60z" />
    <glyph glyph-name="uni0E49.sm" 
d="M13 687l-15 -42h-94q-23 0 -36.5 13t-13.5 28q0 13 -6 16.5t-12 3.5h-30l-1 41h64q15 0 27.5 -12.5t12.5 -27.5q0 -8 6 -14t14 -6h84z" />
    <glyph glyph-name="uni0E4A.sm" 
d="M-134 733q2 5 6 9t10 7t17 3q29 0 44 -15t14 -35q0 -8 3 -9t8 -1h45l-15 -42h-40q-28 0 -36 12.5t-8 27.5q0 12 -6.5 19t-13.5 7q-10 0 -14 -9.5t-4 -20.5h-20q0 10 -4.5 20t-12.5 10t-15.5 -8t-7.5 -22q0 -17 9 -28q4 -5 10 -8h-52q-5 3 -9 8q-9 11 -9 28q0 27 19 46.5
t48 19.5q10 0 16.5 -3t10.5 -7t7 -9z" />
    <glyph glyph-name="uni0E24_uni0E45" horiz-adv-x="700" 
d="M382 -153q0 -14 -5.5 -23.5t-12.5 -17.5q-8 -9 -18 -15h-15v485q0 36 -13.5 58t-33.5 35t-45 17.5t-47 4.5q-29 0 -51.5 -10.5t-38.5 -22.5q-18 -14 -32 -32l60 -50l-2.5 -3.5t-5.5 -13t-6 -25t-3 -38.5v-135q0 -20 12.5 -20h26.5v-41h-35q-29 0 -42 15t-13 51v130
q0 19 3 33.5t7 25.5q4 12 10 21q-17 14 -30 25q-11 9 -20.5 16.5t-9.5 8.5q15 29 39 53q20 20 52 36.5t78 16.5q24 0 48.5 -3.5t47 -12t41.5 -21t33 -30.5q4 7 12.5 18.5t23.5 22t37 18.5t53 8q27 0 56.5 -8.5t54 -27.5t40 -48.5t15.5 -71.5v-429q0 -14 -6 -23.5t-13 -17.5
q-8 -9 -18 -15h-14v475q0 64 -36.5 94.5t-88.5 30.5q-36 0 -55.5 -13.5t-28 -30.5t-10 -31.5t-1.5 -15.5v-453z" />
    <glyph glyph-name="uni0E26_uni0E45" horiz-adv-x="700" 
d="M112 66q0 -38 -13.5 -52t-42.5 -14h-35v41h30q6 1 8.5 8.5t2.5 18.5t-0.5 22.5t-0.5 20.5l1 85q0 19 3 33.5t7 25.5q4 12 10 21q-17 14 -30 25q-11 9 -20.5 16.5t-9.5 8.5q15 29 39 53q20 20 52 36.5t77 16.5q24 0 49 -3.5t47.5 -12t42 -21t32.5 -30.5q4 7 12.5 18.5
t23.5 22.5t37 18.5t53 7.5q27 0 56.5 -8.5t54 -27.5t40 -48.5t15.5 -71.5v-429q0 -14 -6 -23.5t-13 -17.5q-8 -9 -18 -15h-14v475q0 64 -36.5 94.5t-88.5 30.5q-45 0 -65.5 -19t-27 -42.5t-4.5 -44t2 -22.5v-416q0 -14 -5.5 -23.5t-12.5 -17.5q-8 -9 -18 -15h-15v485
q0 37 -13.5 59.5t-34.5 35t-46 16.5t-47 4q-29 0 -50.5 -10.5t-37.5 -22.5q-18 -14 -32 -32l60 -50q-5 -7 -9 -18q-4 -10 -6.5 -24.5t-2.5 -37.5v-130z" />
  </font>
</defs>
</svg>
